<?xml version="1.0" encoding="UTF-8"?>
<!DOCTYPE svg PUBLIC "-//W3C//DTD SVG 1.1//EN" "http://www.w3.org/Graphics/SVG/1.1/DTD/svg11.dtd">
<!-- Creator: CorelDRAW X7 -->
<svg xmlns="http://www.w3.org/2000/svg" xml:space="preserve" width="85.5859mm" height="18.9234mm" version="1.1" style="shape-rendering:geometricPrecision; text-rendering:geometricPrecision; image-rendering:optimizeQuality; fill-rule:evenodd; clip-rule:evenodd"
viewBox="0 0 2123 469"
 xmlns:xlink="http://www.w3.org/1999/xlink">
 <defs>
  <style type="text/css">
   <![CDATA[
    .str2 {stroke:#373435;stroke-width:8.74871}
    .str0 {stroke:#373435;stroke-width:4.3756}
    .str1 {stroke:#F06277;stroke-width:4.3756}
    .fil7 {fill:none}
    .fil3 {fill:#373435}
    .fil6 {fill:#F06277}
    .fil2 {fill:#373435;fill-rule:nonzero}
    .fil4 {fill:#373435;fill-rule:nonzero}
    .fil5 {fill:#ED3237;fill-rule:nonzero}
    .fil0 {fill:url(#id0)}
    .fil1 {fill:url(#id1)}
    .fil8 {fill:url(#id2)}
   ]]>
  </style>
  <linearGradient id="id0" gradientUnits="userSpaceOnUse" x1="221.421" y1="349.155" x2="388.381" y2="121.539">
   <stop offset="0" style="stop-opacity:1; stop-color:#91D8F7"/>
   <stop offset="1" style="stop-opacity:1; stop-color:#FEFEFE"/>
  </linearGradient>
  <linearGradient id="id1" gradientUnits="userSpaceOnUse" x1="707.72" y1="374.528" x2="1012.84" y2="79.4205">
   <stop offset="0" style="stop-opacity:1; stop-color:#0098DA"/>
   <stop offset="1" style="stop-opacity:1; stop-color:#FEFEFE"/>
  </linearGradient>
  <linearGradient id="id2" gradientUnits="userSpaceOnUse" xlink:href="#id0" x1="1599.65" y1="349.155" x2="1766.61" y2="121.539">
  </linearGradient>
 </defs>
 <g id="Layer_x0020_1">
  <metadata id="CorelCorpID_0Corel-Layer"/>
  <g id="_2620063626480">
   <path class="fil0 str0" d="M393 443c-48,0 -170,13 -248,5 -78,-8 -141,-36 -137,-144 6,-161 -22,-213 9,-244 32,-32 274,-18 301,-16 28,1 181,-24 229,-24 119,0 22,149 43,255 5,22 11,68 5,104 -5,30 -17,54 -46,52 -60,-3 -108,12 -156,12z"/>
   <path class="fil1 str0" d="M608 74c-2,-73 140,-57 173,-53 33,3 290,7 313,7 22,0 39,4 38,31 0,28 -19,88 -7,190 9,76 33,174 -89,169 -25,-1 -49,-1 -74,-2 -154,-9 -228,21 -285,21 -56,0 -88,-18 -82,-58 6,-36 0,-82 -4,-104 -14,-66 19,-148 17,-201z"/>
   <path class="fil2" d="M131 151l0 -3 -2 0c-7,0 -8,-1 -9,-5l-23 -66c-1,-1 -1,-2 -3,-2 -1,0 -2,1 -2,2l-22 64c-2,5 -6,7 -12,7l0 3 11 0 12 0 0 -3c-5,0 -8,-3 -8,-6 0,0 0,-1 0,-1l5 -14 26 0 6 16c0,0 0,1 0,2 0,3 -6,3 -8,3l0 3c3,0 11,0 15,0l14 0zm-28 -27l-24 0 12 -35 12 35z"/>
   <path class="fil2" d="M1061 363c0,-9 -8,-17 -20,-19 10,-2 17,-8 17,-16 0,-9 -9,-18 -23,-18l-39 0 0 3 3 0c8,0 8,1 8,5l0 56c0,4 0,5 -8,5l-3 0 0 3 42 0c14,0 23,-9 23,-19l0 0zm-13 -35c0,7 -5,16 -17,16l-15 0 0 -27c0,-3 0,-4 5,-4l13 0c11,0 14,9 14,15l0 0zm3 35c0,7 -6,16 -17,16l-13 0c-5,0 -5,-1 -5,-4l0 -29 20 0c10,0 15,10 15,17l0 0z"/>
   <circle class="fil3 str0" cx="167" cy="294" r="14"/>
   <circle class="fil3 str0" cx="599" cy="148" r="14"/>
   <circle class="fil3 str0" cx="599" cy="148" r="14"/>
   <circle class="fil3 str0" cx="597" cy="334" r="14"/>
   <circle class="fil3 str0" cx="597" cy="334" r="14"/>
   <circle class="fil3 str0" cx="1039" cy="101" r="14"/>
   <path class="fil2" d="M187 381c0,-2 -1,-2 -3,-2 -2,0 -2,0 -3,3 -1,4 -3,11 -7,11 -1,0 -2,0 -2,-3 0,-2 1,-3 1,-4l7 -30c1,-1 1,-2 1,-2 0,-3 -3,-5 -5,-5 -1,0 -5,1 -7,6l-7 30c0,2 -1,2 -4,5 -1,2 -4,3 -7,3 -5,0 -5,-5 -5,-7 0,-6 3,-16 6,-22 1,-3 1,-4 1,-6 0,-6 -5,-9 -11,-9 -11,0 -16,14 -16,16 0,2 1,2 3,2 2,0 2,0 3,-2 1,-3 4,-13 10,-13 0,0 1,0 1,2 0,2 -1,6 -2,7 -3,9 -6,17 -6,23 0,10 7,13 16,13 3,0 7,0 12,-5 2,4 7,5 11,5 5,0 8,-3 9,-5 3,-5 4,-11 4,-11z"/>
   <path id="1" class="fil2" d="M206 418l0 -2 -2 0c-5,0 -5,-1 -5,-3l0 -29c0,-2 0,-2 -1,-2 -3,4 -8,4 -10,4l0 1c1,0 4,0 7,-1l0 27c0,2 0,3 -5,3l-1 0 0 2c1,-1 6,-1 8,-1 2,0 7,0 9,1z"/>
   <path class="fil2" d="M1034 186c0,-1 -1,-1 -3,-1 -3,0 -3,0 -3,3 -1,3 -3,11 -7,11 -1,0 -2,-1 -2,-3 0,-2 0,-3 1,-5l7 -29c1,-2 1,-2 1,-3 0,-3 -3,-4 -5,-4 -2,0 -6,1 -7,6l-7 30c-1,1 -1,2 -4,5 -1,1 -4,3 -7,3 -5,0 -6,-5 -6,-7 0,-7 4,-16 7,-23 0,-2 1,-4 1,-6 0,-5 -5,-9 -11,-9 -11,0 -16,14 -16,17 0,1 1,1 3,1 2,0 2,0 3,-1 0,-3 3,-13 9,-13 1,0 2,0 2,2 0,2 -1,5 -2,7 -3,9 -6,16 -6,22 0,10 6,14 15,14 3,0 8,-1 13,-6 2,4 7,6 11,6 5,0 7,-4 9,-6 3,-4 4,-10 4,-11z"/>
   <path id="1" class="fil2" d="M1054 214c0,-4 -3,-8 -8,-10 4,-1 7,-5 7,-9 0,-4 -5,-7 -10,-7 -5,0 -9,3 -9,7 0,2 1,3 3,3 1,0 2,-1 2,-3 0,-3 -2,-3 -3,-3 2,-2 5,-3 7,-3 2,0 5,1 5,6 0,1 0,4 -1,6 -2,3 -4,3 -5,3 0,0 -2,0 -2,0 -1,0 -1,0 -1,1 0,0 0,0 1,0l3 0c4,0 6,4 6,9 0,7 -4,9 -6,9 -2,0 -6,-1 -8,-4 2,0 3,-1 3,-3 0,-2 -1,-3 -3,-3 -1,0 -2,1 -2,3 0,5 4,8 10,8 7,0 11,-5 11,-10z"/>
   <path class="fil2" d="M701 139c0,-1 -2,-1 -3,-1 -3,0 -3,0 -4,3 0,3 -2,11 -6,11 -1,0 -2,-1 -2,-3 0,-2 0,-3 1,-5l7 -29c0,-2 0,-2 0,-2 0,-4 -2,-5 -4,-5 -2,0 -6,1 -7,6l-7 30c-1,2 -1,2 -4,5 -1,1 -4,3 -7,3 -5,0 -6,-5 -6,-7 0,-7 4,-16 6,-23 1,-2 2,-4 2,-5 0,-6 -5,-10 -11,-10 -11,0 -16,14 -16,17 0,1 1,1 3,1 2,0 2,0 3,-1 0,-3 3,-13 9,-13 1,0 2,0 2,2 0,2 -2,5 -2,7 -4,9 -7,17 -7,22 0,10 7,14 16,14 3,0 8,-1 13,-6 2,4 7,6 11,6 5,0 7,-4 9,-6 2,-4 4,-10 4,-11z"/>
   <path id="1" class="fil2" d="M721 167l-1 0c-1,2 -1,4 -2,5 0,0 -3,0 -5,0l-9 0 6 -5c8,-8 11,-11 11,-16 0,-6 -5,-10 -11,-10 -6,0 -10,5 -10,9 0,3 2,3 3,3 1,0 2,0 2,-2 0,-2 -1,-3 -2,-3 -1,0 -1,0 -1,0 1,-3 4,-5 7,-5 5,0 7,4 7,8 0,4 -3,9 -5,12l-11 11c0,1 0,1 0,2l19 0 2 -9z"/>
   <path class="fil2" d="M701 367c0,-1 -2,-1 -3,-1 -3,0 -3,0 -4,3 0,3 -2,11 -6,11 -1,0 -2,-1 -2,-3 0,-2 0,-3 1,-5l7 -29c0,-2 0,-2 0,-2 0,-4 -2,-5 -4,-5 -2,0 -6,1 -7,6l-7 30c-1,2 -1,2 -4,5 -1,1 -4,3 -7,3 -5,0 -6,-5 -6,-7 0,-7 4,-16 6,-23 1,-2 2,-4 2,-5 0,-6 -5,-10 -11,-10 -11,0 -16,14 -16,17 0,1 1,1 3,1 2,0 2,0 3,-1 0,-3 3,-13 9,-13 1,0 2,0 2,2 0,2 -2,5 -2,7 -4,9 -7,17 -7,23 0,9 7,13 16,13 3,0 8,-1 13,-6 2,4 7,6 11,6 5,0 7,-4 9,-6 2,-4 4,-10 4,-11z"/>
   <path id="1" class="fil2" d="M721 395l-1 0c-1,2 -1,4 -2,5 0,0 -3,0 -5,0l-9 0 6 -5c8,-8 11,-11 11,-16 0,-6 -5,-10 -11,-10 -6,0 -10,5 -10,10 0,2 2,2 3,2 1,0 2,0 2,-2 0,-2 -1,-3 -2,-3 -1,0 -1,0 -1,0 1,-3 4,-5 7,-5 5,0 7,4 7,8 0,4 -3,9 -5,12l-11 11c0,1 0,1 0,2l19 0 2 -9z"/>
   <path class="fil4" d="M228 356l0 -2 -1 0c-3,0 -4,0 -4,-2l-12 -33c0,-1 0,-1 -1,-1 -1,0 -1,0 -1,1l-11 31c-1,3 -3,4 -6,4l0 2 6 -1 6 1 0 -2c-3,0 -4,-1 -4,-3 0,0 0,0 0,0l2 -7 13 0 3 8c0,0 0,0 0,0 0,2 -3,2 -4,2l0 2c2,-1 5,-1 7,-1l7 1zm-13 -14l-12 0 6 -17 6 17z"/>
   <path id="1" class="fil4" d="M264 346c0,-5 -4,-9 -10,-9 5,-1 9,-4 9,-8 0,-5 -5,-9 -12,-9l-19 0 0 1 1 0c4,0 4,1 4,3l0 28c0,1 0,2 -4,2l-1 0 0 2 20 0c7,0 12,-5 12,-10l0 0zm-6 -17c0,3 -3,7 -9,7l-7 0 0 -13c0,-1 0,-2 2,-2l7 0c5,0 7,5 7,8l0 0zm1 17c0,4 -3,8 -8,8l-7 0c-2,0 -2,0 -2,-2l0 -14 9 0c6,0 8,4 8,8l0 0z"/>
   <path class="fil4" d="M738 112l0 -2 0 0c-4,0 -4,0 -5,-2l-11 -33c-1,0 -1,-1 -1,-1 -1,0 -1,1 -2,1l-11 32c-1,2 -3,3 -5,3l0 2 5 0 6 0 0 -2c-3,0 -4,-1 -4,-2 0,-1 0,-1 0,-1l2 -7 13 0 3 8c0,0 0,0 0,1 0,1 -3,1 -4,1l0 2c2,0 6,0 8,0l6 0zm-13 -14l-12 0 6 -17 6 17z"/>
   <path id="1" class="fil4" d="M774 102c0,-4 -4,-8 -10,-9 5,-1 9,-4 9,-8 0,-5 -5,-9 -12,-9l-19 0 0 2 1 0c4,0 5,0 5,2l0 28c0,2 -1,2 -5,2l-1 0 0 2 21 0c7,0 11,-5 11,-10l0 0zm-6 -17c0,3 -3,8 -9,8l-7 0 0 -13c0,-2 0,-2 2,-2l7 0c5,0 7,4 7,7l0 0zm1 17c0,4 -3,8 -8,8l-7 0c-2,0 -2,0 -2,-2l0 -14 10 0c5,0 7,5 7,8l0 0z"/>
   <path class="fil4" d="M736 342l0 -1 -1 0c-3,0 -4,-1 -4,-2l-12 -33c0,-1 0,-1 -1,-1 -1,0 -1,0 -1,1l-11 31c-1,3 -3,4 -6,4l0 1 6 0 6 0 0 -1c-3,0 -4,-2 -4,-3 0,0 0,-1 0,-1l2 -7 13 0 3 8c0,1 0,1 0,1 0,2 -3,2 -4,2l0 1c2,0 5,0 7,0l7 0zm-13 -13l-12 0 6 -17 6 17z"/>
   <path id="1" class="fil4" d="M772 333c0,-5 -4,-9 -10,-9 5,-1 9,-5 9,-9 0,-4 -5,-9 -12,-9l-19 0 0 2 1 0c4,0 4,1 4,3l0 27c0,2 0,3 -4,3l-1 0 0 1 20 0c7,0 12,-4 12,-9l0 0zm-6 -18c0,4 -3,8 -9,8l-7 0 0 -13c0,-2 0,-2 2,-2l7 0c5,0 7,5 7,7l0 0zm1 18c0,3 -3,8 -8,8l-7 0c-2,0 -2,-1 -2,-2l0 -15 9 0c6,0 8,5 8,9l0 0z"/>
   <path class="fil4" d="M1070 163l0 -2 0 0c-4,0 -4,0 -5,-2l-11 -33c-1,-1 -1,-1 -1,-1 -1,0 -1,0 -2,1l-11 31c-1,3 -3,4 -5,4l0 2 5 -1 6 1 0 -2c-3,0 -4,-1 -4,-3 0,0 0,0 0,-1l2 -6 13 0 3 8c0,0 0,0 0,0 0,2 -3,2 -4,2l0 2c2,-1 6,-1 8,-1l6 1zm-13 -14l-12 0 6 -17 6 17z"/>
   <path id="1" class="fil4" d="M1106 153c0,-5 -4,-9 -10,-9 5,-1 9,-5 9,-8 0,-5 -5,-9 -12,-9l-19 0 0 1 1 0c4,0 4,1 4,3l0 27c0,2 0,3 -4,3l-1 0 0 2 21 0c7,0 11,-5 11,-10l0 0zm-6 -17c0,3 -3,7 -9,7l-7 0 0 -13c0,-1 0,-2 2,-2l7 0c5,0 7,5 7,8l0 0zm1 17c0,4 -3,8 -8,8l-7 0c-2,0 -2,0 -2,-2l0 -15 10 0c5,0 7,5 7,9l0 0z"/>
   <g>
    <path class="fil5" d="M395 151l12 -46c0,-2 0,-3 0,-3 0,-2 -1,-4 -4,-4 -3,0 -4,1 -5,2 -3,-3 -7,-4 -11,-4 -18,0 -28,17 -28,31 0,11 8,17 17,17 4,0 7,-1 10,-3l-1 7c-3,10 -9,13 -15,13 -2,0 -5,0 -6,0 2,-2 3,-5 3,-6 0,-3 -2,-5 -6,-5 -3,0 -7,3 -7,8 0,6 8,7 16,7 13,0 23,-5 25,-14zm-6 -20c-1,4 -7,9 -12,9 -6,0 -7,-5 -7,-8 0,-5 4,-18 6,-22 3,-9 9,-10 11,-10 3,0 7,1 8,6l-6 25z"/>
    <path id="1" class="fil5" d="M442 91l0 -2 -1 0c-3,0 -4,0 -4,-2l-12 -33c0,-1 0,-1 -1,-1 -1,0 -1,0 -1,1l-11 32c-1,2 -3,3 -6,3l0 2 5 0 6 0 0 -2c-2,0 -4,-1 -4,-2 0,-1 0,-1 0,-1l3 -7 13 0 3 8c0,0 0,0 0,1 0,1 -3,1 -5,1l0 2c2,0 6,0 8,0l7 0zm-14 -14l-12 0 6 -17 6 17z"/>
    <path id="2" class="fil5" d="M478 81c0,-4 -4,-8 -10,-9 5,-1 9,-4 9,-8 0,-5 -5,-9 -12,-9l-19 0 0 1 1 0c4,0 4,1 4,3l0 28c0,2 0,2 -4,2l-1 0 0 2 20 0c7,0 12,-5 12,-10l0 0zm-6 -17c0,3 -3,8 -9,8l-8 0 0 -14c0,-1 1,-2 3,-2l7 0c5,0 7,5 7,8l0 0zm1 17c0,4 -3,8 -8,8l-7 0c-2,0 -3,0 -3,-2l0 -14 10 0c6,0 8,5 8,8l0 0z"/>
    <path class="fil5" d="M395 151l12 -46c0,-2 0,-3 0,-3 0,-2 -1,-4 -4,-4 -3,0 -4,1 -5,2 -3,-3 -7,-4 -11,-4 -18,0 -28,17 -28,31 0,11 8,17 17,17 4,0 7,-1 10,-3l-1 7c-3,10 -9,13 -15,13 -2,0 -5,0 -6,0 2,-2 3,-5 3,-6 0,-3 -2,-5 -6,-5 -3,0 -7,3 -7,8 0,6 8,7 16,7 13,0 23,-5 25,-14zm-6 -20c-1,4 -7,9 -12,9 -6,0 -7,-5 -7,-8 0,-5 4,-18 6,-22 3,-9 9,-10 11,-10 3,0 7,1 8,6l-6 25z"/>
    <path id="1" class="fil5" d="M428 156l-2 0c0,1 0,4 -1,4 0,1 -4,1 -5,1l-9 0 5 -6c9,-7 12,-10 12,-15 0,-6 -5,-10 -11,-10 -6,0 -10,5 -10,9 0,3 2,3 2,3 1,0 3,0 3,-3 0,-1 -1,-2 -3,-2 0,0 0,0 0,0 1,-4 4,-6 7,-6 5,0 7,5 7,9 0,4 -3,8 -6,12l-10 11c0,1 0,1 0,2l19 0 2 -9z"/>
   </g>
   <g>
    <path class="fil5" d="M384 363l11 -46c1,-1 1,-2 1,-2 0,-3 -2,-5 -5,-5 -3,0 -4,2 -5,3 -3,-3 -7,-4 -11,-4 -18,0 -28,17 -28,31 0,11 8,16 17,16 4,0 7,0 11,-2l-2 7c-3,10 -9,13 -14,13 -3,0 -6,0 -7,-1 2,-1 3,-4 3,-6 0,-2 -2,-4 -5,-4 -4,0 -8,3 -8,7 0,7 9,8 16,8 13,0 23,-6 26,-15zm-7 -19c-1,4 -7,9 -12,9 -6,0 -6,-6 -6,-8 0,-6 3,-19 5,-22 3,-9 9,-11 11,-11 4,0 7,2 8,7l-6 25z"/>
    <path id="1" class="fil5" d="M430 304l0 -2 -1 0c-3,0 -4,0 -4,-2l-12 -33c0,-1 0,-1 -1,-1 -1,0 -1,0 -1,1l-11 31c-1,3 -3,4 -6,4l0 2 5 -1 6 1 0 -2c-2,0 -4,-1 -4,-3 0,0 0,-1 1,-1l2 -7 13 0 3 9c0,0 0,0 0,0 0,2 -3,2 -4,2l0 2c2,-1 5,-1 7,-1l7 1zm-14 -14l-11 0 5 -17 6 17z"/>
    <path id="2" class="fil5" d="M466 294c0,-5 -4,-9 -10,-9 5,-1 9,-5 9,-9 0,-4 -5,-9 -12,-9l-19 0 0 2 1 0c4,0 4,1 4,2l0 28c0,2 0,3 -4,3l-1 0 0 2 21 0c7,0 11,-5 11,-10l0 0zm-6 -18c0,4 -3,8 -9,8l-7 0 0 -13c0,-2 0,-2 2,-2l7 0c5,0 7,4 7,7l0 0zm1 18c0,4 -3,8 -8,8l-7 0c-2,0 -2,0 -2,-2l0 -15 10 0c5,0 7,5 7,9l0 0z"/>
    <path class="fil5" d="M384 363l11 -46c1,-1 1,-2 1,-2 0,-3 -2,-5 -5,-5 -3,0 -4,2 -5,3 -3,-3 -7,-4 -11,-4 -18,0 -28,17 -28,31 0,11 8,16 17,16 4,0 7,0 11,-2l-2 7c-3,10 -9,13 -14,13 -3,0 -6,0 -7,-1 2,-1 3,-4 3,-6 0,-2 -2,-4 -5,-4 -4,0 -8,3 -8,7 0,7 9,8 16,8 13,0 23,-6 26,-15zm-7 -19c-1,4 -7,9 -12,9 -6,0 -6,-6 -6,-8 0,-6 3,-19 5,-22 3,-9 9,-11 11,-11 4,0 7,2 8,7l-6 25z"/>
    <path id="1" class="fil5" d="M416 368l-1 0c-1,2 -1,4 -1,5 -1,1 -4,1 -6,1l-9 0 6 -6c8,-7 11,-10 11,-15 0,-6 -5,-11 -11,-11 -6,0 -10,5 -10,10 0,3 3,3 3,3 1,0 2,-1 2,-3 0,-1 -1,-3 -2,-3 -1,0 -1,0 -1,0 1,-3 4,-5 7,-5 5,0 7,4 7,9 0,4 -2,8 -5,11l-11 12c0,0 0,0 0,2l20 0 1 -10z"/>
   </g>
   <path class="fil6 str1" d="M501 165c-5,-8 -3,-38 -3,-38 -2,2 -32,17 -40,21 14,4 28,12 42,17l1 0z"/>
   <path class="fil6 str1" d="M499 351c-5,-8 -2,-38 -2,-38 -2,2 -33,17 -40,21 13,5 28,13 42,18l0 -1z"/>
   <path class="fil7 str1" d="M597 334c-55,0 -109,0 -140,0"/>
   <path class="fil7 str1" d="M599 148c-56,0 -110,0 -141,0"/>
  </g>
  <g id="_2620063637552">
   <path class="fil8 str0" d="M1771 443c-48,0 -169,13 -248,5 -78,-8 -141,-36 -137,-144 6,-161 -22,-213 10,-244 31,-32 273,-18 301,-16 27,1 181,-24 228,-24 119,0 22,149 44,255 4,22 10,68 4,104 -4,30 -17,54 -45,52 -61,-3 -108,12 -157,12z"/>
   <path class="fil2" d="M1509 151l0 -3 -2 0c-6,0 -8,-1 -9,-5l-23 -66c0,-1 -1,-2 -2,-2 -2,0 -2,1 -3,2l-22 64c-2,5 -6,7 -12,7l0 3 11 0 12 0 0 -3c-5,0 -8,-3 -8,-6 0,0 0,-1 1,-1l4 -14 27 0 5 16c0,0 1,1 1,2 0,3 -6,3 -9,3l0 3c4,0 11,0 15,0l14 0zm-28 -27l-23 0 11 -35 12 35z"/>
   <circle class="fil3 str0" cx="1545" cy="294" r="14"/>
   <circle class="fil3 str0" cx="1977" cy="148" r="14"/>
   <circle class="fil3 str0" cx="1975" cy="334" r="14"/>
   <path class="fil2" d="M1565 381c0,-2 -1,-2 -3,-2 -2,0 -2,0 -3,3 -1,4 -3,11 -6,11 -2,0 -2,0 -2,-3 0,-2 0,-3 0,-4l8 -30c0,-1 0,-2 0,-2 0,-3 -2,-5 -5,-5 -1,0 -5,1 -6,6l-8 30c0,2 0,2 -3,5 -2,2 -4,3 -8,3 -5,0 -5,-5 -5,-7 0,-6 3,-16 6,-22 1,-3 2,-4 2,-6 0,-6 -6,-9 -12,-9 -11,0 -16,14 -16,16 0,2 2,2 3,2 2,0 3,0 3,-2 1,-3 4,-13 10,-13 0,0 1,0 1,2 0,2 -1,6 -2,7 -3,9 -6,17 -6,23 0,10 7,13 16,13 3,0 7,0 12,-5 2,4 7,5 11,5 5,0 8,-3 9,-5 3,-5 4,-11 4,-11z"/>
   <path id="1" class="fil2" d="M1584 418l0 -2 -2 0c-4,0 -5,-1 -5,-3l0 -29c0,-2 0,-2 -1,-2 -3,4 -8,4 -9,4l0 1c1,0 4,0 6,-1l0 27c0,2 0,3 -4,3l-2 0 0 2c2,-1 6,-1 8,-1 3,0 7,0 9,1z"/>
   <path class="fil2" d="M1917 142c0,-1 -1,-1 -3,-1 -3,0 -3,0 -3,2 -1,4 -3,12 -7,12 -1,0 -2,-1 -2,-3 0,-2 0,-3 1,-5l7 -29c1,-2 1,-2 1,-3 0,-3 -3,-4 -5,-4 -2,0 -6,0 -7,6l-7 29c-1,2 -1,3 -4,6 -1,1 -4,3 -7,3 -5,0 -6,-5 -6,-7 0,-7 4,-16 7,-23 1,-3 1,-4 1,-6 0,-6 -5,-9 -11,-9 -11,0 -16,14 -16,16 0,2 1,2 3,2 2,0 2,0 3,-1 1,-3 3,-13 9,-13 1,0 2,0 2,2 0,2 -1,5 -2,7 -3,9 -6,16 -6,22 0,10 7,14 15,14 3,0 8,-1 13,-6 2,4 7,6 11,6 5,0 7,-4 9,-6 3,-4 4,-10 4,-11z"/>
   <path id="1" class="fil2" d="M1937 170l-1 0c0,1 -1,4 -1,5 -1,0 -4,0 -5,0l-10 0 6 -6c8,-7 11,-10 11,-15 0,-6 -5,-10 -11,-10 -6,0 -10,5 -10,9 0,3 3,3 3,3 1,0 3,0 3,-3 0,-1 -1,-2 -3,-2 -1,0 -1,0 -1,0 1,-4 4,-6 7,-6 5,0 7,5 7,9 0,4 -2,8 -5,12l-10 11c-1,1 -1,1 -1,2l20 0 1 -9z"/>
   <path class="fil2" d="M1920 363c0,-2 -2,-2 -3,-2 -3,0 -3,0 -4,3 -1,3 -3,11 -6,11 -1,0 -2,0 -2,-3 0,-2 0,-3 0,-4l8 -30c0,-1 0,-2 0,-2 0,-3 -2,-5 -5,-5 -1,0 -5,1 -6,6l-8 30c0,2 0,2 -3,5 -2,2 -4,3 -7,3 -6,0 -6,-5 -6,-7 0,-6 4,-16 6,-22 1,-3 2,-4 2,-6 0,-6 -6,-10 -11,-10 -11,0 -17,15 -17,17 0,1 2,1 3,1 2,0 3,0 3,-1 1,-3 4,-13 10,-13 1,0 2,0 2,2 0,2 -2,6 -2,7 -4,9 -7,17 -7,23 0,9 7,13 16,13 3,0 7,0 13,-5 2,3 6,5 10,5 5,0 8,-3 9,-6 3,-4 5,-10 5,-10z"/>
   <path id="1" class="fil2" d="M1940 390l-2 0c0,2 0,4 -1,5 0,0 -4,0 -5,0l-9 0 5 -5c9,-7 12,-10 12,-15 0,-7 -5,-11 -11,-11 -6,0 -10,5 -10,10 0,3 2,3 2,3 1,0 3,-1 3,-3 0,-1 -1,-3 -3,-3 0,0 0,0 0,0 1,-3 4,-5 7,-5 5,0 7,4 7,9 0,4 -3,8 -6,11l-10 12c0,0 0,0 0,2l19 0 2 -10z"/>
   <path class="fil4" d="M1954 116l0 -2 -1 0c-3,0 -4,0 -4,-2l-11 -32c-1,-1 -1,-2 -2,-2 0,0 -1,1 -1,2l-11 31c-1,3 -3,3 -6,3l0 2 6 0 6 0 0 -2c-3,0 -4,-1 -4,-2 0,0 0,-1 0,-1l2 -7 13 0 3 8c0,0 0,1 0,1 0,1 -3,1 -4,1l0 2c2,0 5,0 7,0l7 0zm-13 -14l-12 0 6 -17 6 17z"/>
   <path class="fil4" d="M1606 356l0 -2 0 0c-4,0 -4,0 -5,-2l-11 -33c-1,-1 -1,-1 -2,-1 0,0 0,0 -1,1l-11 31c-1,3 -3,4 -6,4l0 2 6 -1 6 1 0 -2c-3,0 -4,-1 -4,-3 0,0 0,0 0,0l2 -7 13 0 3 8c0,0 0,0 0,0 0,2 -3,2 -4,2l0 2c2,-1 6,-1 8,-1l6 1zm-13 -14l-12 0 6 -17 6 17z"/>
   <path class="fil4" d="M1955 337l0 -1 -1 0c-3,0 -4,-1 -4,-3l-12 -32c0,-1 0,-1 -1,-1 -1,0 -1,0 -1,1l-11 31c-1,3 -3,4 -6,4l0 1 5 0 6 0 0 -1c-2,0 -4,-2 -4,-3 0,0 0,-1 1,-1l2 -7 13 0 3 8c0,0 0,1 0,1 0,2 -3,2 -4,2l0 1c1,0 5,0 7,0l7 0zm-14 -13l-11 0 5 -17 6 17z"/>
   <g>
    <path class="fil5" d="M2074 98l11 -46c1,-2 1,-3 1,-3 0,-2 -2,-4 -5,-4 -3,0 -4,1 -5,2 -3,-3 -7,-4 -10,-4 -18,0 -29,17 -29,31 0,11 8,17 17,17 4,0 7,-1 11,-3l-2 8c-3,9 -9,12 -14,12 -3,0 -6,0 -7,0 2,-2 3,-5 3,-6 0,-3 -2,-5 -5,-5 -4,0 -8,3 -8,8 0,6 9,7 16,7 13,0 23,-5 26,-14zm-7 -20c-1,4 -7,9 -12,9 -6,0 -6,-5 -6,-7 0,-6 3,-19 5,-23 3,-9 9,-10 12,-10 3,0 6,1 7,6l-6 25z"/>
    <path id="1" class="fil5" d="M2120 38l0 -2 -1 0c-3,0 -4,0 -4,-2l-12 -33c0,-1 0,-1 -1,-1 -1,0 -1,0 -1,1l-11 32c-1,2 -3,3 -6,3l0 2 5 0 7 0 0 -2c-3,0 -4,-1 -4,-2 0,-1 0,-1 0,-1l2 -7 13 0 3 8c0,0 0,0 0,1 0,1 -3,1 -4,1l0 2c2,0 5,0 7,0l7 0zm-13 -14l-12 0 6 -17 6 17z"/>
    <path class="fil5" d="M2074 98l11 -46c1,-2 1,-3 1,-3 0,-2 -2,-4 -5,-4 -3,0 -4,1 -5,2 -3,-3 -7,-4 -10,-4 -18,0 -29,17 -29,31 0,11 8,17 17,17 4,0 7,-1 11,-3l-2 8c-3,9 -9,12 -14,12 -3,0 -6,0 -7,0 2,-2 3,-5 3,-6 0,-3 -2,-5 -5,-5 -4,0 -8,3 -8,8 0,6 9,7 16,7 13,0 23,-5 26,-14zm-7 -20c-1,4 -7,9 -12,9 -6,0 -6,-5 -6,-7 0,-6 3,-19 5,-23 3,-9 9,-10 12,-10 3,0 6,1 7,6l-6 25z"/>
    <path id="1" class="fil5" d="M2106 103l-1 0c0,1 -1,4 -1,5 -1,0 -4,0 -5,0l-10 0 6 -6c8,-7 11,-10 11,-15 0,-6 -5,-10 -11,-10 -6,0 -10,5 -10,9 0,3 3,3 3,3 1,0 3,0 3,-2 0,-2 -1,-3 -3,-3 -1,0 -1,0 -1,0 1,-4 4,-6 7,-6 5,0 7,5 7,9 0,4 -2,8 -5,12l-10 11c-1,1 -1,1 -1,2l20 0 1 -9z"/>
   </g>
   <g>
    <path class="fil5" d="M2057 455l11 -46c1,-2 1,-3 1,-3 0,-2 -2,-4 -5,-4 -3,0 -4,1 -5,2 -3,-3 -7,-4 -10,-4 -18,0 -29,18 -29,31 0,12 8,17 17,17 4,0 7,-1 11,-3l-2 8c-3,10 -9,13 -14,13 -3,0 -6,-1 -7,-1 2,-2 3,-5 3,-6 0,-3 -2,-5 -5,-5 -4,0 -8,3 -8,8 0,7 9,7 16,7 13,0 23,-5 26,-14zm-7 -19c-1,3 -7,8 -12,8 -6,0 -6,-5 -6,-7 0,-6 3,-19 5,-23 3,-8 9,-10 12,-10 3,0 6,2 7,6l-6 26z"/>
    <path id="1" class="fil5" d="M2103 395l0 -2 -1 0c-3,0 -4,0 -4,-2l-12 -33c0,0 0,-1 -1,-1 -1,0 -1,0 -1,1l-11 32c-1,3 -3,3 -6,3l0 2 5 0 6 0 0 -2c-2,0 -4,-1 -4,-2 0,0 1,-1 1,-1l2 -7 13 0 3 8c0,0 0,1 0,1 0,1 -3,1 -4,1l0 2c2,0 5,0 7,0l7 0zm-13 -14l-12 0 6 -17 6 17z"/>
    <path class="fil5" d="M2057 455l11 -46c1,-2 1,-3 1,-3 0,-2 -2,-4 -5,-4 -3,0 -4,1 -5,2 -3,-3 -7,-4 -10,-4 -18,0 -29,18 -29,31 0,12 8,17 17,17 4,0 7,-1 11,-3l-2 8c-3,10 -9,13 -14,13 -3,0 -6,-1 -7,-1 2,-2 3,-5 3,-6 0,-3 -2,-5 -5,-5 -4,0 -8,3 -8,8 0,7 9,7 16,7 13,0 23,-5 26,-14zm-7 -19c-1,3 -7,8 -12,8 -6,0 -6,-5 -6,-7 0,-6 3,-19 5,-23 3,-8 9,-10 12,-10 3,0 6,2 7,6l-6 26z"/>
    <path id="1" class="fil5" d="M2089 460l-1 0c-1,2 -1,4 -1,5 -1,0 -4,0 -5,0l-10 0 6 -5c8,-8 11,-11 11,-16 0,-6 -5,-10 -11,-10 -6,0 -10,5 -10,10 0,2 3,2 3,2 1,0 2,0 2,-2 0,-2 0,-3 -2,-3 -1,0 -1,0 -1,0 1,-3 4,-5 7,-5 5,0 7,4 7,8 0,4 -2,9 -5,12l-11 11c0,1 0,1 0,2l20 0 1 -9z"/>
   </g>
   <path class="fil6 str1" d="M2075 130c5,9 2,38 2,38 2,-2 33,-17 40,-20 -13,-5 -28,-13 -42,-18l0 0z"/>
   <path class="fil6 str1" d="M2074 317c5,8 2,37 2,37 2,-2 33,-17 40,-20 -14,-5 -28,-13 -42,-18l0 1z"/>
   <path class="fil7 str1" d="M2117 148c-55,0 -110,0 -140,0"/>
   <path class="fil7 str1" d="M2116 334c-56,0 -110,0 -141,0"/>
  </g>
  <line class="fil7 str2" x1="1221" y1="239" x2="1293" y2= "239" />
 </g>
</svg>
