<?xml version="1.0" encoding="UTF-8"?>
<!DOCTYPE svg PUBLIC "-//W3C//DTD SVG 1.1//EN" "http://www.w3.org/Graphics/SVG/1.1/DTD/svg11.dtd">
<!-- Creator: CorelDRAW X7 -->
<svg xmlns="http://www.w3.org/2000/svg" xml:space="preserve" width="45.7681mm" height="17.6672mm" version="1.1" style="shape-rendering:geometricPrecision; text-rendering:geometricPrecision; image-rendering:optimizeQuality; fill-rule:evenodd; clip-rule:evenodd"
viewBox="0 0 9902 3822"
 xmlns:xlink="http://www.w3.org/1999/xlink">
 <defs>
  <style type="text/css">
   <![CDATA[
    .str0 {stroke:#373435;stroke-width:38.1657}
    .str1 {stroke:#373435;stroke-width:38.1657}
    .str2 {stroke:#ED3237;stroke-width:38.1657}
    .str3 {stroke:#373435;stroke-width:38.1657;stroke-dasharray:190.828429 114.497057}
    .fil6 {fill:none}
    .fil3 {fill:#373435}
    .fil5 {fill:#373435}
    .fil2 {fill:#373435;fill-rule:nonzero}
    .fil7 {fill:#373435;fill-rule:nonzero}
    .fil4 {fill:#ED3237;fill-rule:nonzero}
    .fil0 {fill:url(#id0)}
    .fil1 {fill:url(#id1)}
   ]]>
  </style>
  <linearGradient id="id0" gradientUnits="userSpaceOnUse" x1="1931.33" y1="2915.93" x2="3387.62" y2="930.581">
   <stop offset="0" style="stop-opacity:1; stop-color:#91D8F7"/>
   <stop offset="1" style="stop-opacity:1; stop-color:#FEFEFE"/>
  </linearGradient>
  <linearGradient id="id1" gradientUnits="userSpaceOnUse" x1="6171.55" y1="3139.17" x2="8832.89" y2="565.107">
   <stop offset="0" style="stop-opacity:1; stop-color:#0098DA"/>
   <stop offset="1" style="stop-opacity:1; stop-color:#FEFEFE"/>
  </linearGradient>
 </defs>
 <g id="Layer_x0020_1">
  <metadata id="CorelCorpID_0Corel-Layer"/>
  <path class="fil0 str0" d="M3427 3737c-419,0 -1479,115 -2162,42 -683,-72 -1233,-314 -1196,-1259 55,-1401 -192,-1852 82,-2127 274,-276 2387,-153 2626,-140 239,13 1578,-210 1994,-210 1039,0 194,1298 379,2223 39,193 91,594 40,912 -41,262 -152,468 -398,454 -525,-28 -941,105 -1365,105z"/>
  <path class="fil1 str0" d="M5297 516c-15,-634 1227,-493 1512,-462 285,31 2532,65 2729,63 197,-2 339,36 336,273 -3,237 -171,763 -61,1658 80,658 287,1515 -779,1469 -220,-9 -425,-7 -649,-19 -1342,-75 -1984,188 -2478,187 -495,0 -768,-161 -717,-507 51,-318 -2,-717 -40,-907 -117,-574 166,-1293 147,-1755z"/>
  <path class="fil2" d="M1139 1187l0 -28 -16 0c-56,0 -69,-7 -79,-37l-199 -578c-5,-12 -7,-18 -21,-18 -15,0 -18,6 -23,18l-191 553c-16,47 -53,61 -103,62l0 28 94 -3 106 3 0 -28c-46,0 -69,-23 -69,-47 0,-3 1,-12 2,-14l42 -121 228 0 49 141c1,4 3,9 3,13 0,28 -52,28 -77,28l0 28c34,-3 98,-3 133,-3l121 3zm-239 -239l-208 0 104 -300 104 300z"/>
  <path class="fil2" d="M9256 3038c0,-81 -76,-150 -178,-161 89,-18 153,-77 153,-145 0,-80 -85,-156 -205,-156l-338 0 0 29 22 0c71,0 73,10 73,43l0 487c0,33 -2,43 -73,43l-22 0 0 29 362 0c123,0 206,-82 206,-169l0 0zm-115 -306c0,59 -45,137 -147,137l-134 0 0 -227c0,-31 2,-37 45,-37l114 0c90,0 122,78 122,127l0 0zm23 305c0,65 -48,141 -144,141l-115 0c-43,0 -45,-6 -45,-37l0 -252 173 0c92,0 131,86 131,148l0 0z"/>
  <circle class="fil3 str0" cx="1456" cy="2434" r="119"/>
  <circle class="fil3 str0" cx="1456" cy="2434" r="119"/>
  <circle class="fil3 str0" cx="5123" cy="1863" r="119"/>
  <path class="fil2" d="M1325 3194c0,-13 -12,-13 -26,-13 -22,0 -23,1 -29,24 -8,30 -24,99 -56,99 -11,0 -17,-7 -17,-28 0,-18 1,-25 5,-40l64 -256c4,-14 4,-15 4,-20 0,-29 -23,-40 -42,-40 -12,0 -48,6 -59,52l-64 260c-4,16 -4,20 -30,46 -13,12 -36,26 -64,26 -46,0 -48,-43 -48,-63 0,-56 31,-138 54,-196 8,-23 12,-34 12,-50 0,-52 -47,-82 -97,-82 -96,0 -141,125 -141,144 0,13 12,13 26,13 18,0 22,0 26,-12 7,-24 32,-112 85,-112 4,0 13,0 13,17 0,19 -11,48 -17,61 -29,79 -55,146 -55,197 0,84 60,117 136,117 26,0 65,-5 110,-47 18,32 59,47 95,47 44,0 67,-32 79,-50 24,-39 36,-91 36,-94z"/>
  <path id="1" class="fil2" d="M1487 3515l0 -14 -15 0c-41,0 -43,-5 -43,-22l0 -259c0,-12 0,-12 -10,-12 -29,29 -70,29 -84,29l0 14c9,0 36,0 60,-12l0 240c0,16 -1,22 -43,22l-15 0 0 14c17,-1 57,-1 75,-1 19,0 59,0 75,1z"/>
  <path class="fil4" d="M1077 1399c0,-43 -43,-73 -104,-73 -115,0 -142,101 -150,148l-17 90 -84 0c-16,0 -33,0 -33,27 0,17 16,17 30,17l79 0 -64 352c-10,49 -12,59 -24,105 -2,14 -15,63 -46,63 0,0 -15,0 -27,-8 30,-15 37,-44 37,-59 0,-25 -18,-42 -46,-42 -33,0 -65,28 -65,69 0,45 46,73 100,73 35,0 111,-19 155,-156 12,-40 16,-57 24,-98l55 -299 102 0c15,0 32,0 32,-27 0,-17 -17,-17 -30,-17l-96 0c8,-43 30,-169 36,-182 5,-12 19,-23 32,-23 3,0 16,1 29,8 -20,11 -37,33 -37,59 0,25 19,42 46,42 33,0 66,-27 66,-69z"/>
  <path id="1" class="fil4" d="M1143 2159l0 -14 -15 0c-41,0 -43,-5 -43,-22l0 -259c0,-12 0,-12 -10,-12 -29,29 -69,29 -84,29l0 14c9,0 36,0 60,-12l0 240c0,16 -1,22 -43,22l-15 0 0 14c17,-1 57,-1 75,-1 19,0 59,0 75,1z"/>
  <path class="fil2" d="M4682 1432c0,-13 -12,-13 -26,-13 -22,0 -23,1 -30,24 -7,30 -24,100 -55,100 -11,0 -18,-8 -18,-29 0,-18 2,-25 6,-40l64 -256c3,-13 3,-15 3,-20 0,-28 -22,-40 -41,-40 -12,0 -48,6 -59,52l-64 260c-4,16 -5,20 -30,46 -13,12 -36,27 -64,27 -46,0 -48,-44 -48,-64 0,-56 31,-138 53,-196 9,-23 13,-34 13,-50 0,-52 -47,-82 -97,-82 -96,0 -141,125 -141,144 0,13 12,13 26,13 17,0 22,0 26,-12 7,-24 32,-112 85,-112 4,0 13,0 13,17 0,19 -11,48 -17,61 -30,79 -55,146 -55,197 0,85 60,117 136,117 26,0 65,-5 110,-47 18,32 59,47 95,47 44,0 67,-32 79,-50 24,-39 36,-91 36,-94z"/>
  <path id="1" class="fil2" d="M4858 1673l-12 0c-2,14 -5,34 -10,41 -3,4 -34,4 -44,4l-83 0 49 -48c72,-64 100,-89 100,-135 0,-52 -42,-89 -98,-89 -52,0 -86,42 -86,83 0,26 23,26 24,26 8,0 24,-5 24,-24 0,-12 -8,-24 -24,-24 -4,0 -5,0 -6,0 10,-30 35,-47 62,-47 42,0 62,37 62,75 0,37 -23,74 -49,102l-88 99c-5,5 -5,6 -5,17l171 0 13 -80z"/>
  <path class="fil5 str1" d="M4629 1894c67,49 144,296 145,296 9,-23 205,-248 251,-299 -123,7 -267,-8 -397,-1l1 4z"/>
  <path class="fil6 str2" d="M1667 2243c84,113 80,196 16,323"/>
  <path class="fil6 str2" d="M1770 2110c193,242 59,478 47,527"/>
  <path class="fil6 str2" d="M1200 2360c-37,118 -17,186 70,260"/>
  <path class="fil6 str2" d="M1069 2283c-91,254 56,409 155,455"/>
  <path class="fil6 str3" d="M1456 2434c337,771 2008,418 2577,36 115,-77 1010,-638 1090,-607l4 -34"/>
  <g id="_1443931755600">
   <path class="fil7" d="M6169 1609l0 -43 -105 3c-35,0 -87,0 -121,-3l0 43c22,0 46,0 70,10 -2,3 -2,5 -6,11l-172 251 -186 -272 78 0 0 -43c-37,3 -126,3 -167,3 -37,0 -119,0 -151,-3l0 43 89 0 228 335 0 208 -99 0 0 43c33,-3 123,-3 162,-3 39,0 127,0 162,3l0 -43 -100 0 0 -208 215 -316c8,-13 16,-13 36,-16 16,-2 32,-3 48,-3l19 0z"/>
   <path id="1" class="fil7" d="M6393 2298l-12 0c-2,14 -5,34 -10,41 -3,4 -33,4 -43,4l-83 0 49 -48c71,-63 99,-88 99,-133 0,-53 -41,-89 -97,-89 -52,0 -86,42 -86,83 0,25 23,25 24,25 8,0 24,-5 24,-24 0,-12 -8,-24 -24,-24 -4,0 -5,0 -6,1 10,-30 35,-47 62,-47 41,0 61,37 61,75 0,36 -23,72 -48,101l-88 98c-5,5 -5,6 -5,17l170 0 13 -80z"/>
   <path id="2" class="fil7" d="M6622 2298l-12 0c-2,14 -5,34 -10,41 -3,4 -33,4 -43,4l-83 0 49 -48c71,-63 99,-88 99,-133 0,-53 -42,-89 -97,-89 -52,0 -86,42 -86,83 0,25 23,25 24,25 8,0 24,-5 24,-24 0,-12 -8,-24 -24,-24 -4,0 -5,0 -6,1 10,-30 35,-47 62,-47 41,0 61,37 61,75 0,36 -23,72 -48,101l-88 98c-5,5 -5,6 -5,17l170 0 13 -80z"/>
   <path class="fil7" d="M6169 1609l0 -43 -105 3c-35,0 -87,0 -121,-3l0 43c22,0 46,0 70,10 -2,3 -2,5 -6,11l-172 251 -186 -272 78 0 0 -43c-37,3 -126,3 -167,3 -37,0 -119,0 -151,-3l0 43 89 0 228 335 0 208 -99 0 0 43c33,-3 123,-3 162,-3 39,0 127,0 162,3l0 -43 -100 0 0 -208 215 -316c8,-13 16,-13 36,-16 16,-2 32,-3 48,-3l19 0z"/>
   <path id="1" class="fil7" d="M6515 1737l0 -15 -8 0c-27,0 -34,-3 -39,-18l-99 -286c-2,-6 -3,-9 -10,-9 -7,0 -9,3 -11,9l-95 274c-8,23 -27,30 -51,30l0 15 46 -2 53 2 0 -15c-23,0 -34,-11 -34,-23 0,-1 0,-6 1,-7l21 -60 113 0 24 70c1,2 2,5 2,7 0,13 -26,13 -38,13l0 15c16,-2 48,-2 65,-2l60 2zm-118 -119l-103 0 51 -149 52 149z"/>
   <path id="2" class="fil7" d="M6829 1653c0,-40 -38,-74 -89,-80 45,-9 76,-38 76,-72 0,-40 -42,-77 -101,-77l-168 0 0 14 11 0c35,0 36,5 36,22l0 241c0,16 -1,21 -36,21l-11 0 0 15 180 0c60,0 102,-41 102,-84l0 0zm-57 -152c0,30 -23,68 -73,68l-67 0 0 -113c0,-15 1,-18 23,-18l56 0c45,0 61,39 61,63l0 0zm11 151c0,33 -24,70 -71,70l-57 0c-22,0 -23,-3 -23,-18l0 -125 86 0c46,0 65,43 65,73l0 0z"/>
  </g>
 </g>
</svg>
