<?xml version="1.0" encoding="UTF-8"?>
<!DOCTYPE svg PUBLIC "-//W3C//DTD SVG 1.1//EN" "http://www.w3.org/Graphics/SVG/1.1/DTD/svg11.dtd">
<!-- Creator: CorelDRAW X7 -->
<svg xmlns="http://www.w3.org/2000/svg" xml:space="preserve" width="62.29mm" height="50.6524mm" version="1.1" style="shape-rendering:geometricPrecision; text-rendering:geometricPrecision; image-rendering:optimizeQuality; fill-rule:evenodd; clip-rule:evenodd"
viewBox="0 0 239 194"
 xmlns:xlink="http://www.w3.org/1999/xlink">
 <defs>
  <style type="text/css">
   <![CDATA[
    .str3 {stroke:#ED3237;stroke-width:5.41513}
    .str2 {stroke:#ED3237;stroke-width:2.03043}
    .str0 {stroke:#373435;stroke-width:0.676939}
    .str1 {stroke:#ED3237;stroke-width:0.676939}
    .str4 {stroke:#ED3237;stroke-width:5.41513;stroke-dasharray:5.415127 5.415127}
    .fil6 {fill:none}
    .fil4 {fill:#373435}
    .fil5 {fill:#ED3237}
    .fil0 {fill:#FEFEFE;fill-rule:nonzero}
    .fil1 {fill:#373435;fill-rule:nonzero}
    .fil2 {fill:#615E65;fill-rule:nonzero}
    .fil3 {fill:#323233;fill-rule:nonzero}
   ]]>
  </style>
 </defs>
 <g id="Layer_x0020_1">
  <metadata id="CorelCorpID_0Corel-Layer"/>
  <g id="_2996324639456">
   <path class="fil0" d="M151 140c4,3 5,7 4,9 -2,2 -6,2 -10,-1 -3,-2 -5,-6 -3,-8 2,-3 6,-2 9,0z"/>
   <path class="fil1" d="M145 139c-1,0 -2,0 -3,1 0,1 0,2 0,4 1,1 2,3 4,4 2,1 4,2 6,2 0,0 2,0 2,-1 1,-1 1,-2 1,-4 -1,-1 -2,-3 -4,-4 -2,-2 -4,-2 -6,-2zm7 12c-2,0 -5,-1 -7,-2 -2,-2 -3,-3 -4,-5 0,-2 0,-4 1,-5 0,-1 2,-1 3,-1 2,0 5,1 7,2 1,1 3,3 3,5 1,2 1,3 0,5 -1,1 -2,1 -3,1z"/>
   <path class="fil0" d="M151 141c3,3 5,7 3,9 -1,2 -5,1 -9,-1 -3,-3 -5,-7 -3,-9 1,-2 5,-1 9,1z"/>
   <path class="fil1" d="M145 139c-1,0 -2,1 -3,2 -1,1 0,5 3,7 2,2 4,2 6,2 1,0 2,0 3,-1 0,-1 0,-2 0,-3 -1,-2 -2,-3 -3,-4 -2,-2 -4,-3 -6,-3zm6 12c-2,0 -4,0 -6,-2 -4,-3 -5,-7 -4,-9 1,-1 2,-2 4,-2 2,0 4,1 6,3 2,1 3,3 4,4 1,2 0,4 0,5 -1,1 -2,1 -4,1z"/>
   <path class="fil0" d="M150 143c3,2 5,6 3,8 -1,2 -6,2 -9,-1 -4,-2 -5,-6 -3,-8 1,-3 5,-2 9,1z"/>
   <path class="fil1" d="M144 141c-1,0 -2,0 -3,1 -1,1 -1,2 0,4 0,1 2,3 3,4 2,1 4,2 6,2 1,0 2,0 3,-1 1,-2 0,-6 -3,-8 -2,-1 -4,-2 -6,-2zm6 12c-2,0 -4,-1 -6,-2 -2,-2 -3,-3 -4,-5 -1,-2 -1,-4 0,-5 1,-1 2,-1 4,-1 2,0 4,1 6,2 4,3 5,7 4,10 -1,1 -2,1 -4,1z"/>
   <path class="fil0" d="M149 144c3,2 4,5 2,7 -1,2 -4,2 -7,-1 -3,-2 -4,-5 -3,-7 1,-1 5,-1 8,1z"/>
   <path class="fil1" d="M144 143c-1,0 -2,0 -2,1 -1,0 -1,1 -1,2 1,2 2,3 3,4 2,1 3,2 5,2 1,0 1,0 2,-1 1,-1 1,-2 0,-3 0,-1 -1,-3 -3,-4 -1,-1 -3,-1 -4,-1zm5 10c-2,0 -4,-1 -5,-2 -2,-1 -3,-3 -3,-4 -1,-2 -1,-3 0,-4 0,-1 1,-1 3,-1 1,0 3,0 5,2 1,1 3,2 3,4 1,1 1,2 0,3 -1,1 -2,2 -3,2z"/>
   <path class="fil0" d="M147 146c3,2 4,5 3,6 -1,2 -4,1 -7,0 -3,-2 -4,-5 -2,-7 1,-1 4,-1 6,1z"/>
   <path class="fil1" d="M143 145c-1,0 -2,0 -2,1 -1,1 0,3 2,5 2,1 3,2 4,2 1,0 2,0 2,-1 1,-1 0,-4 -2,-6 -1,-1 -3,-1 -4,-1zm4 9c-1,0 -3,-1 -4,-2 -3,-2 -4,-5 -3,-7 1,-1 2,-1 3,-1 1,0 3,0 5,1 2,3 3,6 2,7 0,1 -1,2 -3,2z"/>
   <path class="fil2" d="M29 112l6 34c1,3 2,6 5,8l9 10c2,3 5,4 8,5l40 9c5,2 11,0 15,-3l10 -9c1,-1 2,-2 3,-4l56 -85c3,-5 3,-11 1,-16l-8 -22c-3,-6 -10,-11 -17,-10l-32 1c-4,0 -7,1 -10,3l-79 62c-5,4 -8,10 -7,17z"/>
   <path class="fil1" d="M158 29c-1,0 -1,0 -1,0l-32 1c-4,1 -7,2 -10,4l-79 62c-5,3 -7,10 -6,16l6 34c0,3 2,6 4,8l9 10c2,2 5,4 8,5l40 9c1,0 2,0 3,0 5,0 9,-1 12,-4l9 -9c2,-1 2,-2 3,-3l56 -85c3,-5 4,-11 2,-16l-9 -21c-2,-7 -9,-11 -15,-11zm-58 150c0,0 0,0 0,0 -1,0 -2,0 -4,0l-39 -9c-3,-1 -6,-3 -9,-6l-9 -9c-2,-3 -4,-6 -4,-9l-6 -34c-1,-7 1,-13 6,-17l80 -62c3,-2 6,-3 10,-4l32 -1c8,0 14,4 17,11l9 22c2,5 1,11 -2,16l-56 86c-1,1 -2,2 -3,3l-10 9c-3,3 -7,4 -12,4z"/>
   <path class="fil0" d="M117 167c2,-1 4,-3 6,-5 -2,2 -5,2 -8,1 1,1 2,3 2,4z"/>
   <path class="fil2" d="M135 149l16 -3 0 7c0,1 0,1 -1,2l-11 15c0,1 -2,2 -3,2l-18 -3 3 -9 14 -11z"/>
   <path class="fil1" d="M118 169l18 2c0,0 0,0 0,0 0,0 0,0 0,0 1,0 2,0 3,-1l11 -16c0,0 0,0 0,-1l0 -7 -15 3 -14 11 -3 9zm18 3c0,0 0,0 0,0l-18 -2c0,0 -1,0 -1,0 0,0 0,-1 0,-1l3 -9c0,-1 0,-1 0,-1l15 -11c0,0 0,0 0,0l16 -3c0,0 0,0 0,0 0,0 0,1 0,1l0 7c0,1 0,1 0,2l-11 16c-1,1 -2,1 -4,1z"/>
   <path class="fil2" d="M136 141l13 3c2,1 2,1 2,2l-12 17c-1,1 -1,1 -2,1l-15 -3c-1,-1 -2,-2 -1,-3l14 -16c0,-1 1,-1 1,-1z"/>
   <path class="fil1" d="M136 141c-1,0 -1,0 -1,1l-14 16c0,1 0,1 0,2 0,0 0,0 1,0l15 4c1,0 1,0 1,-1l12 -17c1,0 1,0 1,-1 -1,0 -1,0 -2,0l-13 -4c0,0 0,0 0,0zm1 23c0,0 0,0 0,0l-15 -3c-1,0 -1,-1 -1,-1 -1,-1 -1,-1 0,-2l13 -17c1,0 1,0 2,0 0,0 0,0 0,0l14 3c0,0 1,1 1,1 0,1 0,1 0,1l-12 18c-1,0 -1,0 -2,0z"/>
   <path class="fil2" d="M136 142l11 3c0,0 1,1 1,2l-10 13c0,1 -1,1 -1,1l-13 -3c-1,0 -1,-1 0,-2l11 -13c0,-1 0,-1 1,-1z"/>
   <path class="fil1" d="M135 142c0,0 0,1 0,1l-11 13c0,0 0,1 0,1 0,0 0,1 0,1l13 2c0,1 0,0 1,0l9 -14c0,0 0,0 0,0 0,0 0,-1 0,-1l-11 -3c0,0 0,0 -1,0zm2 19c0,0 0,0 -1,0l-12 -3c0,0 -1,0 -1,-1 0,0 0,-1 0,-1l11 -14c1,0 1,0 2,0l11 3c0,0 1,0 1,1 0,0 0,0 0,1l-10 13c0,1 -1,1 -1,1z"/>
   <path class="fil2" d="M135 143l10 3c0,0 1,1 1,1l-9 12c0,0 -1,1 -1,1l-11 -3c-1,0 -1,-1 0,-2l9 -11c0,-1 1,-1 1,-1z"/>
   <path class="fil0" d="M135 144c0,0 0,0 -1,0l-9 12c0,0 0,0 0,0 0,1 0,1 0,1l11 2c0,0 1,0 1,0l8 -12c0,0 0,0 0,0 0,-1 0,-1 0,-1l-10 -2c0,0 0,0 0,0zm1 16c0,0 0,0 0,0l-11 -3c0,0 -1,0 -1,0 0,-1 0,-1 0,-2l10 -11c0,-1 1,-1 1,-1l10 3c0,0 1,0 1,0 0,1 0,1 0,1l-9 12c0,1 0,1 -1,1z"/>
   <path class="fil0" d="M202 98c1,1 1,4 0,6 -1,1 -3,2 -5,3 -2,0 -5,-1 -7,-1 -12,-2 -24,-5 -36,-7 -2,0 -4,-1 -5,0 -2,0 -4,2 -5,4 -1,4 -1,8 1,11 11,3 23,6 34,8 5,1 9,1 14,1 4,0 9,-2 12,-4 4,-3 6,-8 5,-12 0,-5 -4,-9 -8,-9z"/>
   <path class="fil1" d="M145 114c11,3 23,5 34,7 4,1 7,2 11,2l0 0c1,0 2,0 3,0 3,-1 8,-2 12,-5 3,-3 5,-7 5,-11 -1,-4 -4,-8 -7,-9 1,2 1,4 0,6 -2,2 -4,3 -6,3 -1,0 -1,0 -2,0 -1,0 -3,0 -5,-1l-36 -6c-1,-1 -2,-1 -4,-1 0,0 -1,0 -1,0 -2,1 -4,2 -4,5 -2,3 -2,7 0,10zm45 10l0 0c-4,0 -8,-1 -11,-2 -12,-2 -23,-4 -34,-7l-1 0 0 0c-2,-4 -2,-8 0,-12 1,-2 3,-4 5,-5 0,0 1,0 1,0 2,0 3,0 4,1l36 7c2,0 4,0 5,0 1,0 1,0 2,0 2,0 4,-1 5,-3 1,-1 1,-4 -1,-5l-1 -1 2 0c4,1 8,5 9,10 0,4 -2,9 -6,12 -4,3 -9,4 -12,5 -1,0 -2,0 -3,0z"/>
   <path class="fil3" d="M206 112c-3,1 -6,2 -9,1 -4,0 -8,0 -11,0 -8,-1 -16,-3 -24,-5 -6,-1 -12,-2 -18,-3 -1,3 -1,6 1,9 11,3 23,6 34,8 5,1 9,1 14,1 4,0 9,-2 12,-4 4,-3 6,-7 5,-12 -1,2 -2,4 -4,5z"/>
   <path class="fil0" d="M214 78c1,1 1,4 0,6 -1,2 -3,3 -5,3 -3,0 -5,0 -7,-1 -12,-2 -24,-4 -36,-7 -2,0 -4,0 -5,0 -3,1 -4,3 -5,5 -2,3 -1,7 1,11 11,2 22,5 34,7 4,1 9,2 13,1 5,0 10,-1 13,-4 4,-3 6,-8 5,-12 0,-5 -4,-9 -8,-9z"/>
   <path class="fil1" d="M157 94c11,3 23,6 34,8 3,0 7,1 11,1l0 0c1,0 2,0 2,0 4,0 9,-1 13,-5 3,-2 5,-7 5,-11 -1,-4 -4,-7 -7,-8 1,1 1,3 -1,5 -1,2 -3,3 -5,3 -1,0 -1,0 -2,0 -2,0 -3,0 -5,0l-36 -7c-1,0 -3,-1 -4,-1 0,0 -1,0 -1,1 -2,0 -4,2 -5,4 -1,3 -1,7 1,10zm45 10l0 0c-4,0 -8,-1 -11,-1 -12,-2 -23,-5 -34,-8l-1 0 0 0c-2,-4 -2,-8 0,-12 1,-2 2,-4 4,-4 1,-1 2,-1 2,-1 2,0 3,1 4,1l36 7c2,0 4,0 5,0 1,0 1,0 1,0 3,0 5,-1 6,-2 1,-2 1,-4 -1,-6l-1 -1 2 1c4,0 8,4 9,9 0,4 -2,9 -6,12 -4,4 -9,5 -12,5 -1,0 -2,0 -3,0z"/>
   <path class="fil3" d="M218 92c-3,2 -6,2 -9,2 -4,0 -8,-1 -11,-1 -8,-1 -16,-3 -24,-4 -6,-2 -12,-3 -19,-4 0,3 0,7 2,10 11,2 22,5 34,7 4,1 9,2 13,1 5,0 10,-1 13,-4 3,-3 6,-7 5,-12 -1,2 -2,4 -4,5z"/>
   <path class="fil0" d="M225 58c2,2 2,4 1,6 -1,2 -3,3 -6,3 -2,0 -4,0 -6,-1 -12,-2 -24,-4 -37,-6 -1,-1 -3,-1 -4,-1 -3,1 -4,3 -5,5 -2,3 -1,8 1,11 11,3 22,5 34,7 4,1 9,2 13,2 5,-1 9,-2 13,-5 3,-3 6,-7 5,-12 0,-4 -4,-8 -9,-9z"/>
   <path class="fil1" d="M169 74c11,3 23,6 34,8 3,1 7,1 11,1l0 0c1,0 2,0 2,0 4,0 9,-1 13,-4 3,-3 5,-8 5,-12 -1,-4 -4,-7 -7,-8 1,2 0,4 -1,5 -1,2 -3,3 -6,4 0,0 0,0 -1,0 -2,0 -3,-1 -5,-1l-37 -7c-1,0 -2,0 -3,0 0,0 -1,0 -1,0 -2,0 -4,2 -5,4 -1,3 -1,7 1,10zm45 10l0 0c-4,0 -8,0 -11,-1 -12,-2 -23,-5 -35,-8l0 0 0 0c-2,-3 -2,-8 -1,-11 2,-3 3,-5 5,-5 1,0 2,0 2,0 1,0 3,0 4,0l36 7c2,0 3,1 5,1 1,0 1,0 1,0 3,-1 5,-2 6,-3 1,-2 1,-4 -1,-5l-1 -1 1 0c5,0 9,4 10,9 0,5 -2,9 -6,13 -4,3 -9,4 -13,4 0,0 -1,0 -2,0z"/>
   <path class="fil3" d="M230 72c-3,2 -6,2 -9,2 -4,0 -8,-1 -11,-1 -8,-1 -16,-2 -24,-4 -6,-1 -12,-3 -19,-4 -1,4 0,7 2,10 11,3 22,5 34,7 4,1 9,2 13,2 5,-1 9,-2 13,-5 3,-3 6,-7 5,-11 -1,2 -3,3 -4,4z"/>
   <path class="fil0" d="M190 118c1,1 1,4 0,5 -1,2 -3,3 -5,3 -2,1 -5,0 -7,0 -12,-3 -24,-5 -36,-7 -2,0 -4,-1 -5,0 -2,0 -4,2 -5,4 -1,4 -1,8 1,11 11,3 23,6 34,8 5,0 9,1 14,1 4,0 9,-2 12,-5 4,-3 6,-7 6,-12 -1,-4 -5,-8 -9,-8z"/>
   <path class="fil1" d="M133 134c11,2 23,5 34,7 4,1 8,1 11,1l0 0c1,0 2,0 3,0 3,0 8,-1 12,-4 4,-3 6,-7 5,-11 0,-5 -3,-8 -7,-9 1,2 1,4 0,6 -2,1 -4,3 -6,3 -1,0 -1,0 -2,0 -1,0 -3,0 -5,-1l-36 -7c-1,0 -2,0 -3,0 -1,0 -2,0 -2,0 -2,1 -3,2 -4,4 -2,4 -2,7 0,11zm45 9l0 0c-3,0 -7,0 -11,-1 -11,-2 -23,-5 -34,-7l0 -1 -1 0c-2,-3 -2,-7 0,-11 1,-3 3,-4 5,-5 0,0 1,0 2,0 1,0 2,0 3,0l36 7c2,1 4,1 5,1 1,0 1,0 2,0 2,0 4,-1 5,-3 1,-1 1,-4 -1,-5l-1 -1 2 0c4,0 8,4 9,9 1,5 -2,10 -5,13 -5,3 -10,4 -13,4 -1,0 -2,0 -3,0z"/>
   <path class="fil3" d="M194 132c-3,1 -6,1 -9,1 -4,0 -7,0 -11,-1 -8,-1 -16,-2 -24,-4 -6,-1 -12,-3 -18,-3 -1,3 -1,6 1,9 11,3 23,6 34,8 5,0 9,1 14,1 4,0 9,-2 12,-5 4,-2 6,-7 6,-11 -2,2 -3,4 -5,5z"/>
   <path class="fil0" d="M28 82c0,0 -6,2 -7,6l2 17 63 15 15 16 1 8 3 4c3,2 7,2 9,0l5 -4 66 -107 0 -8 -157 53z"/>
   <path class="fil1" d="M103 144l3 3c1,1 2,2 4,2 0,0 0,0 0,0 1,0 3,0 4,-1l4 -5 67 -106 -1 -8 -156 54c0,0 -6,2 -7,6l2 16 63 15 16 15 1 9zm7 6c0,0 0,0 0,0 -2,0 -4,-1 -5,-2l-3 -3 -1 -9 -16 -15 -63 -16 -2 -17 0 0c1,-4 7,-6 8,-6l157 -54 1 9 0 1 -67 106 -4 4c-2,1 -3,2 -5,2z"/>
   <path class="fil2" d="M86 98c3,2 5,4 7,7 2,2 3,5 5,7 3,2 5,4 8,5 -4,-7 -10,-13 -17,-18l-3 -1z"/>
   <path class="fil2" d="M24 86c-1,0 -1,1 -1,1 1,1 1,1 2,1 7,0 14,0 20,2 1,0 3,1 4,1 1,0 2,-1 3,-2 -7,-1 -15,-2 -23,-4 -2,0 -4,0 -5,1z"/>
   <path class="fil0" d="M28 89l15 3c1,0 2,1 2,2 1,1 3,4 6,6 0,0 0,0 1,0l17 3c1,0 1,0 2,0 1,-1 3,-2 6,-3 1,0 11,2 14,6 2,3 1,7 6,10 0,0 0,0 0,0l11 5c2,0 2,1 2,3l0 0c0,1 -2,2 -3,2l-12 -4c-2,0 -3,-2 -4,-4 -1,-2 -3,-4 -7,-5 -5,-2 -9,-2 -11,-3 -1,0 -1,0 -2,0l-2 -3c-1,-1 -1,-1 -2,-1l-20 -4c-1,0 -1,0 -1,0l-6 2c0,0 -1,0 -1,0l-11 -3c-1,0 -2,-1 -2,-2l-1 -7c0,-1 1,-3 3,-3z"/>
   <path class="fil1" d="M46 102c0,0 1,0 1,0l20 4c1,0 2,0 2,1l2 2c1,1 1,1 2,1 2,0 6,1 12,2 4,1 6,4 6,6 1,2 3,3 4,4l12 3c0,0 0,0 0,0 1,0 2,0 3,-1l0 0c0,-1 -1,-3 -2,-3l-11 -4c0,0 -1,-1 -1,-1 -2,-2 -3,-4 -4,-6 0,-1 -1,-3 -2,-4 -2,-3 -11,-5 -13,-5 0,0 0,0 0,0 -3,1 -5,2 -6,2 -1,1 -1,1 -2,1l-18 -4c0,0 0,0 0,0 -3,-1 -5,-4 -6,-6 -1,-1 -1,-1 -2,-1l-15 -3c-1,0 -2,0 -2,1 -1,0 -1,1 -1,1l1 7c0,1 1,1 2,2l11 2c0,0 1,0 1,0l5 -1c1,0 1,0 1,0zm61 24c0,0 0,0 -1,0l-11 -3c-2,-1 -4,-2 -5,-5 0,-1 -2,-4 -6,-5 -5,-1 -10,-2 -11,-2 -1,0 -2,-1 -2,-1l-3 -3c0,0 0,0 -1,0l-20 -4c-1,0 -1,0 -1,0l-6 1c0,0 -1,0 -1,0l-11 -2c-2,-1 -3,-2 -3,-3l-1 -6c0,-1 1,-2 1,-3 1,-1 2,-1 3,-1l15 3c1,0 2,1 2,1 1,2 3,5 6,6 0,0 0,0 1,0l17 4c0,0 1,0 2,-1 1,0 3,-1 6,-2 0,0 0,0 0,0 2,0 11,2 14,5 1,2 2,3 2,5 1,2 1,4 4,5 0,1 0,1 0,1l12 4c1,1 2,2 1,4l0 0c0,1 -1,2 -3,2z"/>
   <path class="fil0" d="M27 91l15 3c1,0 2,0 2,1 1,2 3,5 6,6 0,0 1,0 1,0l17 4c1,0 1,0 2,-1 1,0 3,-1 7,-2 0,0 10,2 13,5 3,4 2,7 6,10 0,1 0,1 0,1l12 4c1,1 2,2 1,3l0 0c0,2 -2,3 -3,2l-12 -3c-2,-1 -3,-2 -4,-4 -1,-2 -2,-5 -6,-6 -6,-1 -10,-2 -12,-2 -1,0 -1,0 -2,-1l-2 -3c0,0 -1,0 -1,0l-21 -4c0,0 -1,0 -1,0l-6 1c0,0 -1,0 -1,0l-11 -2c-1,-1 -2,-2 -2,-3l-1 -6c0,-2 1,-3 3,-3z"/>
   <path class="fil1" d="M45 103c1,0 1,0 1,0l21 4c0,0 1,1 1,1l3 3c0,0 0,1 1,1 2,0 6,1 12,2 4,1 6,4 6,6 1,2 3,3 4,4l12 3c0,0 0,0 1,0 1,0 2,-1 2,-2l0 0c0,-1 0,-2 -1,-3l-12 -4c0,0 0,0 0,0 -3,-2 -4,-4 -4,-6 -1,-2 -1,-3 -2,-5 -3,-3 -12,-5 -13,-5 0,0 0,0 0,0 -4,1 -6,2 -7,3 0,0 -1,0 -2,0l-17 -4c-1,0 -1,0 -1,0 -3,-1 -5,-4 -6,-6 0,0 -1,-1 -2,-1l-15 -3c-1,0 -1,0 -2,1 -1,1 -1,1 -1,2l1 6c0,1 1,2 2,2l11 3c0,0 1,0 1,0l6 -2c0,0 0,0 0,0zm62 25c-1,0 -1,0 -1,-1l-12 -3c-2,-1 -3,-2 -4,-4 -1,-2 -2,-4 -6,-5 -6,-2 -10,-3 -12,-3 -1,0 -1,0 -2,-1l-2 -2c0,-1 -1,-1 -2,-1l-20 -4c0,0 -1,0 -1,0l-6 2c0,0 -1,0 -1,0l-11 -3c-1,0 -2,-1 -2,-3l-1 -6c0,-1 0,-2 1,-2 0,-1 1,-1 2,-1l15 3c1,0 2,0 2,1 1,2 3,4 6,6 0,0 1,0 1,0l17 3c1,1 1,0 2,0 1,-1 3,-2 6,-2 1,0 1,0 1,0 1,0 10,1 13,5 1,1 2,3 2,4 1,3 2,4 4,6 0,0 0,0 0,0l12 5c1,0 2,2 1,3l0 0c0,2 -1,3 -2,3z"/>
   <path class="fil0" d="M3 99l3 21c0,0 1,8 7,11l30 11c0,0 7,0 9,-4l0 -12c0,0 -1,-3 5,-5 3,-1 2,-7 1,-9 -1,-2 -26,-7 -37,-9 -3,-1 -5,-3 -5,-6l0 -3c0,0 -11,-6 -13,5z"/>
   <path class="fil1" d="M43 141c1,0 1,0 1,0 1,0 6,0 7,-3l0 -12c0,-1 0,-4 6,-6 0,0 1,0 1,-1 1,-2 0,-6 -1,-7 -1,-1 -11,-3 -36,-9 -3,0 -5,-3 -5,-6l0 -3c-1,0 -4,-1 -6,-1 -4,0 -6,2 -6,6l2 21c0,0 2,8 7,10l30 11zm1 1l0 0c-1,0 -1,0 -1,0l0 0 0 0 -30 -11 0 0c-6,-2 -8,-10 -8,-11l-2 -21 0 0c1,-6 4,-7 7,-7 3,0 6,2 7,2l0 0 0 3c0,3 2,5 4,5 6,2 15,3 22,5 15,4 15,4 15,5 1,2 2,6 1,8 0,1 -1,1 -2,1 -5,2 -5,5 -5,5l0 0 0 12 0 0c-1,4 -7,4 -8,4z"/>
   <path class="fil2" d="M2 99l2 21c0,0 2,8 7,10l30 11c0,0 6,0 8,-3l0 -12c0,0 -1,-3 5,-5 3,-1 1,-7 0,-9 0,-1 -25,-6 -35,-9 -3,0 -5,-2 -5,-5l0 -3c0,0 -11,-6 -12,4z"/>
   <path class="fil1" d="M41 141c0,0 0,0 0,0l0 0c1,0 6,0 7,-3l0 -12c0,-1 0,-4 6,-5 0,-1 1,-1 1,-1 1,-2 0,-6 -1,-8 0,-1 -14,-4 -35,-8 -3,-1 -5,-3 -5,-6l0 -3c-1,0 -3,-1 -6,-1 -3,0 -5,2 -6,5l3 21c0,0 1,8 6,10l30 11zm0 0l0 0c0,0 0,0 0,0l-1 0 -29 -10c-6,-3 -7,-10 -7,-11l-2 -21 0 0c0,-5 4,-6 6,-6 3,0 6,2 6,2l1 0 0 3c0,2 1,5 4,5 6,1 14,3 21,5 14,3 15,4 15,4 0,2 2,6 0,8 0,0 0,1 -1,1 -6,2 -5,4 -5,5l0 0 0 12 0 0c-2,3 -7,3 -8,3z"/>
   <path class="fil3" d="M104 9c-17,15 -79,74 -79,74 0,0 53,6 67,16 11,8 22,21 23,28l0 11 70 -109 -1 -7c0,0 -5,-8 -6,-9 -2,-1 -21,-9 -26,-9 -4,0 -29,1 -39,1 -4,0 -7,2 -9,4z"/>
   <path class="fil2" d="M137 7c0,0 2,0 2,2l-48 56c0,0 -9,-4 -12,6l0 6 -8 10 -1 -6 6 -8c0,0 0,-10 9,-13 3,-1 6,1 6,1 1,-2 45,-53 46,-54z"/>
   <path class="fil3" d="M145 135c-3,-10 1,-20 5,-29 7,-14 15,-27 24,-39 5,-8 11,-16 17,-23 3,-4 7,-7 11,-8 -2,1 -3,5 -2,8 0,3 2,5 1,8 0,4 -2,7 -4,10 -14,22 -27,45 -40,67 -1,3 -2,5 -5,7 -2,1 -6,2 -7,-1z"/>
   <path class="fil2" d="M168 34c0,0 34,-5 36,0 0,0 0,2 -4,7 -4,5 -47,77 -47,77 0,0 -6,7 -6,10 0,4 -1,9 -3,9 -2,0 -23,-21 -23,-29 0,-8 2,-13 3,-14 2,-2 44,-60 44,-60z"/>
   <path class="fil1" d="M143 136c0,0 0,0 0,0 -1,0 -7,-5 -13,-11 -4,-5 -10,-13 -10,-17 0,-9 2,-14 3,-15l1 1c-2,1 -3,6 -4,14 0,4 7,12 11,17 6,6 11,11 12,11 0,0 0,0 0,-1 1,0 2,-4 2,-7 0,-4 6,-11 6,-11 1,-2 43,-70 46,-75 3,-5 4,-6 4,-7 -2,-4 -26,-1 -35,0l0 0c0,0 8,-1 17,-2 11,-1 18,0 19,2l0 0 0 0c0,1 -1,2 -4,7 -4,5 -46,74 -47,75l0 0c0,0 -6,7 -6,11 0,2 0,7 -1,8 -1,0 -1,0 -1,0z"/>
   <path class="fil0" d="M93 141c12,9 18,23 12,30 -6,8 -20,6 -33,-3 -12,-9 -17,-23 -12,-31 6,-7 21,-6 33,4z"/>
   <path class="fil1" d="M72 133c-5,0 -9,2 -11,5 -6,7 -1,20 12,30 6,5 14,8 21,8 5,0 8,-2 11,-5 5,-7 0,-21 -12,-30 -7,-5 -15,-8 -21,-8zm22 44c-7,0 -15,-3 -22,-9 -13,-9 -18,-23 -12,-31 2,-3 6,-5 12,-5 6,0 14,3 21,8 13,10 18,24 12,32 -2,3 -6,5 -11,5z"/>
   <path class="fil0" d="M91 143c12,9 17,22 12,30 -6,7 -20,6 -32,-4 -12,-9 -17,-22 -11,-29 5,-7 19,-6 31,3z"/>
   <path class="fil1" d="M71 136c-5,0 -9,1 -11,4 -5,7 0,20 11,29 7,5 14,8 21,8 5,0 8,-2 10,-5 6,-7 1,-20 -11,-28 -7,-5 -14,-8 -20,-8zm21 42c-7,0 -14,-3 -21,-8 -12,-9 -18,-23 -12,-30 2,-4 7,-5 12,-5 6,0 14,3 20,8 13,9 18,23 12,30 -2,3 -6,5 -11,5z"/>
   <path class="fil0" d="M88 148c12,9 17,23 12,31 -6,7 -21,6 -33,-4 -13,-9 -18,-23 -12,-30 6,-8 20,-6 33,3z"/>
   <path class="fil1" d="M66 140c-5,0 -9,2 -11,5 -2,3 -3,8 -1,14 3,6 7,11 13,16 7,5 15,8 21,8 5,0 9,-2 11,-5 3,-3 3,-8 1,-14 -2,-6 -7,-11 -13,-16 -7,-5 -14,-8 -21,-8zm22 44c-7,0 -15,-3 -21,-8 -7,-5 -11,-11 -13,-17 -3,-6 -2,-11 0,-15 3,-3 7,-5 12,-5 7,0 15,3 22,9 6,4 10,10 13,16 2,6 2,11 -1,15 -2,3 -7,5 -12,5z"/>
   <path class="fil0" d="M86 150c12,9 18,23 12,30 -6,8 -20,6 -33,-3 -12,-9 -17,-23 -12,-31 6,-7 21,-6 33,4z"/>
   <path class="fil1" d="M65 142c-5,0 -9,2 -11,5 -3,3 -3,8 -1,14 2,6 7,11 13,16 6,5 14,8 21,8 5,0 8,-2 11,-5 2,-3 3,-8 0,-14 -2,-6 -6,-11 -12,-16 -7,-5 -15,-8 -21,-8zm22 44c-7,0 -15,-3 -22,-8 -6,-5 -11,-11 -13,-17 -2,-6 -2,-11 1,-15 2,-3 7,-5 12,-5 7,0 14,3 21,8 6,5 11,11 13,17 3,6 2,11 -1,15 -2,3 -6,5 -11,5z"/>
   <path class="fil1" d="M84 153c10,8 14,19 9,25 -4,6 -16,5 -26,-3 -10,-7 -15,-18 -10,-24 5,-6 17,-5 27,2z"/>
   <path class="fil0" d="M84 153c8,7 12,17 8,22 -4,6 -14,5 -23,-2 -9,-7 -13,-17 -9,-22 4,-5 15,-4 24,2z"/>
   <path class="fil1" d="M68 148c-3,0 -6,1 -7,3 -4,5 -1,15 8,21 5,4 10,6 15,6 3,0 6,-1 8,-3 4,-5 0,-15 -9,-21 -5,-4 -10,-6 -15,-6zm16 31c-5,0 -11,-2 -16,-6 -9,-7 -12,-17 -8,-22 2,-3 5,-4 8,-4 5,0 11,2 16,6 9,7 13,17 9,23 -2,2 -5,3 -9,3z"/>
   <path class="fil0" d="M84 153c8,7 11,16 7,21 -3,5 -13,4 -21,-3 -8,-6 -12,-15 -8,-20 4,-5 13,-4 22,2z"/>
   <path class="fil1" d="M69 149c-3,0 -5,1 -7,2 -1,3 -2,6 0,10 1,3 4,7 8,10 5,3 10,5 14,5 3,0 6,-1 7,-3 4,-4 0,-13 -8,-19 -4,-4 -9,-5 -14,-5zm15 28c-5,0 -10,-2 -14,-5 -4,-3 -8,-7 -9,-11 -2,-4 -1,-8 1,-10 1,-2 4,-3 7,-3 5,0 10,2 15,5 8,6 12,16 8,21 -2,2 -5,3 -8,3z"/>
   <path class="fil0" d="M78 160c2,2 3,4 2,5 -1,1 -3,1 -5,0 -2,-2 -3,-4 -2,-5 1,-2 3,-1 5,0z"/>
   <path class="fil1" d="M75 159c-1,0 -1,0 -2,1 0,1 1,3 2,4 1,1 3,1 4,1 0,0 1,0 1,0 0,-1 0,-1 0,-2 0,-1 -1,-2 -2,-2 -1,-1 -2,-2 -3,-2zm4 7c-2,0 -3,0 -4,-1 -3,-2 -4,-4 -2,-6 0,0 1,-1 2,-1 1,0 2,1 4,2 1,1 2,2 2,3 0,1 0,2 0,2 -1,1 -2,1 -2,1z"/>
   <path class="fil0" d="M108 122l-23 4 -32 -7c0,0 -3,1 -1,7l33 7c0,0 5,3 12,8 6,4 11,-3 11,-7 0,-5 0,-12 0,-12z"/>
   <path class="fil1" d="M52 125l33 8 0 0c0,0 6,3 12,7 1,1 2,2 4,2 4,0 6,-5 6,-8 0,-4 0,-10 0,-11l-22 3 0 0 -32 -7c0,1 -2,2 -1,6zm49 18c-2,0 -3,-1 -5,-2 -6,-4 -11,-7 -11,-7l-34 -8 0 0c-2,-6 2,-8 2,-8l0 0 32 7 23 -4 0 1c0,0 0,7 0,12 0,4 -3,9 -7,9z"/>
   <path class="fil0" d="M124 113c6,5 9,12 6,15 -3,4 -10,3 -16,-1 -6,-5 -9,-11 -6,-15 3,-4 10,-3 16,1z"/>
   <path class="fil1" d="M114 110c-3,0 -5,1 -6,2 -2,4 0,10 6,14 3,3 7,4 10,4 3,0 4,0 5,-2 3,-3 1,-10 -5,-14 -4,-3 -7,-4 -10,-4zm10 21c-3,0 -7,-1 -10,-4 -7,-5 -9,-12 -6,-16 1,-1 3,-2 6,-2 3,0 7,1 10,4 7,5 9,12 6,16 -1,1 -3,2 -6,2z"/>
   <path class="fil0" d="M122 117c-6,-4 -12,-5 -15,-2 -1,2 -10,12 -11,13 -2,4 0,10 6,14 5,4 12,5 14,1 1,-1 10,-12 11,-13 2,-3 0,-9 -5,-13z"/>
   <path class="fil1" d="M112 114c-2,0 -3,0 -4,2 -1,0 -4,4 -6,7 -3,3 -5,5 -5,6 -3,3 0,8 5,12 3,3 6,4 9,4 2,0 4,-1 5,-2 0,0 2,-3 4,-6 3,-3 6,-7 6,-8 1,-1 1,-3 1,-5 -1,-3 -3,-5 -6,-7 -3,-2 -6,-3 -9,-3zm-1 32c0,0 0,0 0,0 -3,0 -6,-1 -10,-4 -5,-4 -8,-10 -5,-14 0,-1 3,-3 5,-6 3,-3 6,-6 6,-7 1,-2 3,-2 5,-2 3,0 7,1 10,3 2,2 4,5 5,7 1,3 1,5 0,7 -1,1 -3,5 -6,8 -2,3 -4,5 -4,6 -1,1 -3,2 -6,2z"/>
   <path class="fil0" d="M109 132c6,5 9,11 6,15 -3,4 -10,3 -16,-2 -6,-4 -9,-11 -6,-15 3,-3 10,-3 16,2z"/>
   <path class="fil1" d="M99 129c-3,0 -5,0 -6,2 -1,1 -1,4 0,6 1,3 3,6 6,8 3,3 7,4 10,4 3,0 5,-1 6,-2 2,-4 0,-10 -6,-15 -3,-2 -7,-3 -10,-3zm10 21c-3,0 -7,-2 -10,-4 -3,-2 -6,-5 -7,-8 -1,-3 -1,-6 1,-8 1,-2 3,-2 6,-2 3,0 7,1 10,4 7,4 9,11 6,15 -1,2 -3,3 -6,3z"/>
   <path class="fil0" d="M108 134c5,4 7,9 5,12 -3,3 -8,2 -13,-1 -5,-4 -7,-10 -5,-13 2,-3 8,-2 13,2z"/>
   <path class="fil1" d="M99 131c-2,0 -3,1 -4,2 -2,3 0,8 5,11 3,2 6,3 8,3 2,0 3,0 4,-1 1,-2 1,-4 0,-6 0,-2 -2,-4 -4,-6 -3,-2 -6,-3 -9,-3zm9 17c-3,0 -6,-1 -9,-3 -5,-4 -7,-10 -5,-13 1,-1 3,-2 5,-2 3,0 6,1 9,3 3,2 4,5 5,7 1,2 1,5 0,6 -1,2 -3,2 -5,2z"/>
   <path class="fil0" d="M108 134c4,3 6,8 4,11 -2,2 -7,2 -11,-2 -5,-3 -7,-8 -5,-10 2,-3 7,-2 12,1z"/>
   <path class="fil1" d="M100 131c-1,0 -2,1 -3,2 -1,1 -1,3 0,5 0,2 2,3 4,5 2,2 5,3 7,3 1,0 3,-1 4,-2 1,-2 0,-7 -4,-10 -3,-2 -5,-3 -8,-3zm8 16c-2,0 -5,-1 -8,-3 -2,-2 -4,-4 -4,-6 -1,-2 -1,-4 0,-6 1,-1 2,-2 4,-2 3,0 6,2 8,3 5,4 7,9 4,12 0,1 -2,2 -4,2z"/>
   <path class="fil0" d="M125 134c0,3 -2,5 -5,5 -2,0 -4,-2 -4,-5 0,-3 2,-5 4,-5 3,0 5,2 5,5z"/>
   <path class="fil1" d="M120 129c-2,0 -4,2 -4,5 0,3 2,5 4,5 2,0 4,-2 4,-5 0,-3 -2,-5 -4,-5zm0 11c-2,0 -5,-3 -5,-6 0,-3 3,-6 5,-6 3,0 5,3 5,6 0,3 -2,6 -5,6z"/>
   <path class="fil0" d="M51 138c0,3 -2,5 -5,5 -2,0 -4,-2 -4,-5 0,-2 2,-4 4,-4 3,0 5,2 5,4z"/>
   <path class="fil1" d="M46 134c-2,0 -4,2 -4,4 0,2 2,4 4,4 2,0 4,-2 4,-4 0,-2 -2,-4 -4,-4zm0 9c-3,0 -5,-2 -5,-5 0,-3 2,-5 5,-5 3,0 5,2 5,5 0,3 -2,5 -5,5z"/>
   <path class="fil0" d="M38 123c5,4 7,9 5,11 -2,3 -8,3 -12,-1 -4,-3 -6,-8 -4,-11 2,-2 7,-2 11,1z"/>
   <path class="fil1" d="M31 121c-1,0 -3,0 -4,2 -1,1 -1,2 0,4 1,2 2,4 4,6 3,2 5,3 8,3 1,0 2,-1 3,-2 2,-2 0,-7 -4,-10 -2,-2 -5,-3 -7,-3zm8 16c-3,0 -6,-1 -8,-3 -2,-2 -4,-4 -5,-6 -1,-3 -1,-5 0,-6 1,-1 3,-2 5,-2 2,0 5,1 8,3 4,4 6,9 4,12 -1,1 -2,2 -4,2z"/>
   <path class="fil0" d="M38 124c4,4 6,8 4,11 -2,2 -7,2 -11,-1 -5,-3 -6,-8 -5,-11 2,-2 8,-2 12,1z"/>
   <path class="fil1" d="M30 122c-1,0 -2,0 -3,1 -2,3 0,7 4,10 2,2 5,3 7,3 1,0 3,0 4,-1 1,-3 0,-7 -5,-10 -2,-2 -4,-3 -7,-3zm8 15c-2,0 -5,-1 -8,-3 -4,-3 -6,-8 -4,-11 1,-1 3,-2 4,-2 3,0 6,1 8,3 5,3 6,8 4,11 -1,1 -2,2 -4,2z"/>
   <path class="fil0" d="M36 126c5,3 7,8 5,11 -2,3 -7,2 -12,-1 -4,-4 -6,-8 -4,-11 2,-3 7,-2 11,1z"/>
   <path class="fil1" d="M29 124c-1,0 -3,0 -4,1 -2,3 0,7 4,10 3,2 5,3 8,3 1,0 2,0 3,-1 1,-1 1,-3 1,-5 -1,-2 -3,-4 -5,-6 -2,-1 -5,-2 -7,-2zm8 15c-3,0 -6,-1 -8,-3 -5,-3 -7,-9 -5,-11 1,-2 3,-2 5,-2 2,0 5,1 8,3 2,1 4,3 5,6 0,2 0,4 -1,5 -1,2 -2,2 -4,2z"/>
   <path class="fil0" d="M35 128c4,3 5,7 4,9 -2,2 -6,2 -10,-1 -3,-3 -5,-7 -3,-9 1,-2 5,-2 9,1z"/>
   <path class="fil1" d="M29 126c-1,0 -2,0 -3,1 -1,1 -1,3 0,4 0,2 2,3 3,4 2,2 4,3 6,3 1,0 2,0 3,-1 2,-2 0,-6 -3,-9 -2,-1 -4,-2 -6,-2zm6 13c-2,0 -4,-1 -6,-3 -2,-1 -3,-3 -4,-5 -1,-1 -1,-3 0,-4 1,-1 2,-2 4,-2 2,0 4,1 6,3 4,3 6,7 4,9 -1,1 -2,2 -4,2z"/>
   <path class="fil0" d="M33 130c3,3 5,6 3,8 -1,2 -5,2 -8,-1 -3,-2 -5,-6 -3,-8 1,-2 5,-1 8,1z"/>
   <path class="fil1" d="M28 129c-1,0 -2,0 -3,1 -1,1 0,5 3,7 2,1 4,2 5,2 1,0 2,0 3,-1 1,-2 0,-5 -3,-7 -2,-2 -4,-2 -5,-2zm5 11c-1,0 -4,-1 -5,-2 -4,-3 -5,-7 -4,-9 1,-1 2,-1 4,-1 2,0 4,0 6,2 3,2 4,6 3,8 -1,1 -2,2 -4,2z"/>
   <path class="fil3" d="M185 37l35 6c0,0 19,3 19,22 0,0 -1,15 -20,18 0,0 18,-19 -5,-25l-39 -7c0,0 -8,-17 10,-14z"/>
   <path class="fil0" d="M221 57c5,3 7,8 6,13 -1,5 -5,9 -9,12 5,-1 10,-5 11,-11 2,-5 0,-11 -5,-14l-3 0z"/>
   <path class="fil0" d="M181 40c15,2 28,4 43,6 -2,0 -4,2 -4,3 -14,-3 -29,-5 -43,-7 0,-1 0,-2 1,-2 1,-1 2,-1 3,0z"/>
   <path class="fil0" d="M53 108c4,3 5,7 4,9 -2,2 -6,1 -10,-1 -3,-3 -5,-7 -3,-9 2,-2 6,-2 9,1z"/>
   <path class="fil1" d="M47 106c-1,0 -2,0 -3,1 0,1 0,3 0,4 1,2 2,3 4,4 2,2 4,3 5,3 1,0 3,-1 3,-2 1,0 1,-2 0,-3 0,-2 -1,-3 -3,-5 -2,-1 -4,-2 -6,-2zm6 13c-2,0 -4,-1 -6,-3 -2,-1 -3,-3 -4,-5 0,-1 0,-3 1,-4 0,-1 2,-2 3,-2 2,0 5,1 7,3 1,1 3,3 3,4 1,2 1,4 0,5 -1,1 -2,2 -4,2z"/>
   <path class="fil0" d="M53 109c3,2 5,6 3,8 -2,2 -6,2 -9,-1 -3,-2 -5,-6 -3,-8 1,-2 5,-2 9,1z"/>
   <path class="fil1" d="M47 107c-1,0 -2,0 -3,1 -1,2 0,5 3,8 2,1 4,2 6,2 1,0 2,0 3,-1 0,-1 0,-2 0,-4 -1,-1 -2,-3 -4,-4 -1,-1 -3,-2 -5,-2zm6 12c-2,0 -4,-1 -6,-2 -4,-3 -5,-7 -4,-9 1,-1 2,-2 4,-2 2,0 4,1 6,2 2,2 3,3 4,5 0,2 0,3 -1,4 0,1 -2,2 -3,2z"/>
   <path class="fil0" d="M52 110c3,3 5,7 3,9 -2,2 -6,2 -9,-1 -4,-3 -5,-7 -4,-9 2,-2 6,-2 10,1z"/>
   <path class="fil1" d="M46 108c-1,0 -2,1 -3,1 -2,2 0,6 3,8 2,2 4,3 6,3 1,0 2,-1 3,-1 1,-2 0,-6 -4,-8 -1,-2 -4,-3 -5,-3zm6 13c-2,0 -4,-1 -6,-3 -4,-3 -6,-7 -4,-9 1,-1 2,-2 4,-2 2,0 4,1 6,3 4,3 5,7 4,9 -1,1 -3,2 -4,2z"/>
   <path class="fil0" d="M51 112c2,2 4,5 2,7 -1,1 -4,1 -7,-1 -3,-2 -4,-5 -3,-7 1,-2 5,-1 8,1z"/>
   <path class="fil1" d="M46 110c-1,0 -2,0 -3,1 -1,2 1,5 3,7 2,1 3,1 5,1 0,0 1,0 2,-1 1,-1 0,-4 -3,-6 -1,-1 -3,-2 -4,-2zm5 10c-2,0 -4,0 -6,-2 -3,-2 -4,-5 -2,-7 0,-1 1,-2 3,-2 1,0 3,1 5,2 3,3 4,6 3,8 -1,1 -2,1 -3,1z"/>
   <path class="fil0" d="M49 113c3,2 4,5 3,7 -2,1 -5,1 -7,-1 -3,-2 -4,-5 -3,-6 2,-2 5,-1 7,0z"/>
   <path class="fil1" d="M45 112c-1,0 -2,0 -2,1 -1,1 0,4 2,6 1,1 3,1 4,1 1,0 2,0 2,-1 1,-1 0,-3 -2,-5 -2,-1 -3,-2 -4,-2zm4 9c-1,0 -3,0 -4,-2 -3,-2 -4,-5 -3,-7 1,0 2,-1 3,-1 1,0 3,1 4,2 3,2 4,5 3,7 -1,1 -2,1 -3,1z"/>
   <path class="fil3" d="M173 57l35 6c0,0 19,3 19,22 0,0 -1,15 -20,18 0,0 18,-19 -5,-25l-39 -7c0,0 -8,-17 10,-14z"/>
   <path class="fil0" d="M210 77c4,2 6,8 5,13 -1,5 -5,9 -9,12 5,-1 10,-6 11,-11 2,-5 0,-11 -4,-15l-3 1z"/>
   <path class="fil0" d="M169 59c15,3 28,5 43,7 -2,0 -4,1 -4,3 -14,-3 -29,-5 -43,-7 0,-1 1,-2 1,-2 1,-1 2,-1 3,-1z"/>
   <path class="fil0" d="M18 109c3,3 5,7 3,9 -2,2 -6,2 -9,-1 -4,-2 -5,-6 -4,-8 2,-3 6,-2 10,0z"/>
   <path class="fil1" d="M12 108c-1,0 -3,0 -3,1 -2,2 0,5 3,8 2,1 4,2 6,2 1,0 2,0 3,-1 0,-1 0,-2 0,-4 -1,-1 -2,-3 -4,-4 -2,-2 -4,-2 -5,-2zm6 12c-2,0 -5,-1 -7,-2 -3,-3 -5,-7 -3,-10 1,-1 2,-1 4,-1 2,0 4,1 6,2 2,1 3,3 4,5 0,2 0,3 -1,4 0,1 -2,2 -3,2z"/>
   <path class="fil0" d="M17 110c4,3 5,6 3,9 -1,2 -5,1 -9,-1 -3,-3 -4,-7 -3,-9 2,-2 6,-1 9,1z"/>
   <path class="fil1" d="M11 108c-1,0 -2,1 -2,2 -1,0 -1,2 -1,3 1,2 2,3 4,4 2,2 4,2 5,2 1,0 2,0 3,-1 1,-2 0,-5 -3,-7 -2,-2 -4,-3 -6,-3zm6 12c-2,0 -4,0 -6,-2 -2,-1 -3,-3 -4,-5 0,-1 0,-3 1,-4 0,-1 2,-2 3,-2 2,0 4,1 6,3 4,3 6,7 4,9 -1,1 -2,1 -4,1z"/>
   <path class="fil0" d="M16 112c4,2 5,6 3,8 -1,2 -5,2 -9,-1 -3,-2 -5,-6 -3,-8 1,-3 6,-2 9,1z"/>
   <path class="fil1" d="M10 110c-1,0 -2,0 -3,1 -1,2 0,5 4,8 1,1 3,2 5,2 1,0 2,0 3,-1 2,-2 0,-6 -3,-8 -2,-1 -4,-2 -6,-2zm6 12c-2,0 -4,-1 -6,-2 -4,-3 -5,-7 -4,-10 1,-1 2,-1 4,-1 2,0 4,1 6,2 4,3 6,7 4,10 -1,1 -2,1 -4,1z"/>
   <path class="fil0" d="M15 113c3,2 4,5 3,7 -2,2 -5,1 -8,-1 -3,-2 -4,-5 -3,-7 2,-1 5,-1 8,1z"/>
   <path class="fil1" d="M10 112c-1,0 -2,0 -2,1 -1,1 0,4 2,6 2,1 4,2 5,2 1,0 2,0 2,-1 1,-2 0,-5 -2,-7 -2,-1 -4,-1 -5,-1zm5 10c-2,0 -3,-1 -5,-2 -3,-3 -4,-6 -3,-8 1,-1 2,-1 3,-1 2,0 4,0 5,2 3,2 5,5 3,7 -1,1 -2,2 -3,2z"/>
   <path class="fil0" d="M13 115c3,2 4,5 3,6 -1,2 -4,1 -7,-1 -2,-1 -3,-4 -2,-6 1,-1 4,-1 6,1z"/>
   <path class="fil1" d="M9 114c-1,0 -1,0 -2,0 0,1 0,2 0,3 1,1 1,2 3,3 1,1 2,2 4,2 0,0 1,-1 2,-1 0,-1 0,-2 0,-3 -1,-1 -2,-2 -3,-3 -1,-1 -3,-1 -4,-1zm5 9c-2,0 -4,-1 -5,-2 -1,-1 -2,-2 -3,-4 0,-1 0,-2 0,-3 1,-1 2,-1 3,-1 2,0 3,0 5,1 1,1 2,3 3,4 0,1 0,3 -1,3 0,1 -1,2 -2,2z"/>
   <path class="fil0" d="M9 103c-4,0 -8,-2 -8,-4 0,-3 3,-5 7,-6 4,-1 8,1 9,4 0,2 -3,5 -8,6z"/>
   <path class="fil1" d="M10 93c-1,0 -1,0 -2,0 -2,1 -4,1 -5,2 -1,1 -2,3 -2,4 1,2 3,3 7,3 0,0 1,0 1,0 4,-1 8,-3 7,-5 0,-2 -3,-4 -6,-4zm-2 10c-4,0 -7,-2 -8,-4 0,-2 1,-3 2,-4 2,-1 4,-2 6,-3 1,0 1,0 2,0 4,0 7,2 7,5 1,3 -3,5 -7,6 -1,0 -2,0 -2,0z"/>
   <path class="fil0" d="M9 102c-4,0 -8,-1 -8,-4 0,-2 3,-5 7,-6 4,0 8,1 8,4 1,3 -2,5 -7,6z"/>
   <path class="fil1" d="M10 93c-1,0 -1,0 -2,0 -4,0 -7,3 -6,5 0,2 2,3 6,3 0,0 1,0 1,0 4,0 7,-3 7,-5 0,-2 -3,-3 -6,-3zm-2 9c-4,0 -7,-1 -7,-4 -1,-3 2,-5 7,-6 1,0 1,0 2,0 4,0 7,1 7,4 0,3 -3,6 -8,6 0,0 -1,0 -1,0z"/>
   <path class="fil0" d="M9 100c-4,1 -8,-1 -8,-4 -1,-2 2,-5 7,-6 4,0 8,1 8,4 1,3 -3,5 -7,6z"/>
   <path class="fil1" d="M10 91c-1,0 -2,0 -2,0 -4,0 -7,3 -7,5 0,2 3,4 6,4 1,0 1,0 2,0 2,-1 4,-2 5,-3 1,-1 2,-2 2,-3 0,-2 -3,-3 -6,-3zm-3 10c-4,0 -7,-2 -7,-5 0,-3 3,-5 8,-6 0,0 1,0 2,0 3,0 7,2 7,4 0,2 -1,3 -2,4 -2,1 -4,2 -6,3 0,0 -1,0 -2,0z"/>
   <path class="fil0" d="M9 98c-4,1 -7,-1 -7,-3 0,-2 2,-4 6,-5 3,0 6,1 7,3 0,2 -3,5 -6,5z"/>
   <path class="fil1" d="M9 91c0,0 -1,0 -1,0 -3,0 -6,2 -6,4 1,2 3,3 5,3 1,0 1,0 2,0 3,-1 5,-3 5,-5 0,-1 -2,-2 -5,-2zm-2 8c-3,0 -5,-2 -6,-4 0,-2 3,-5 7,-5 0,0 1,0 1,0 3,0 6,1 6,3 1,3 -2,5 -6,6 -1,0 -1,0 -2,0z"/>
   <path class="fil0" d="M9 96c-4,0 -6,-1 -7,-3 0,-2 2,-4 6,-4 3,-1 6,1 6,3 0,1 -2,3 -5,4z"/>
   <path class="fil1" d="M9 89c-1,0 -1,0 -1,0 -2,1 -3,1 -4,2 -1,0 -1,1 -1,2 0,1 2,2 4,2 1,0 1,0 1,0 2,0 3,0 4,-1 1,-1 1,-2 1,-2 0,-2 -2,-3 -4,-3zm-2 7c-3,0 -5,-1 -5,-3 0,-1 0,-2 1,-3 1,-1 3,-1 5,-2 0,0 0,0 1,0 3,0 5,2 5,3 0,2 0,3 -1,4 -1,0 -3,1 -4,1 -1,0 -1,0 -2,0z"/>
   <path class="fil3" d="M161 77l35 6c0,0 19,3 19,21 0,0 -1,16 -20,19 0,0 18,-20 -5,-25l-39 -7c0,0 -8,-17 10,-14z"/>
   <path class="fil0" d="M198 97c4,2 6,8 5,13 -1,5 -5,9 -9,11 5,-1 10,-5 11,-10 2,-5 0,-11 -4,-15l-3 1z"/>
   <path class="fil0" d="M157 79c15,3 29,4 43,7 -2,0 -4,1 -4,3 -14,-4 -28,-6 -43,-8 0,0 1,-1 1,-2 1,0 2,0 3,0z"/>
   <path class="fil3" d="M152 8c0,0 -66,85 -65,85 0,1 22,12 22,12l60 -91c0,0 -18,-6 -17,-6z"/>
   <path class="fil3" d="M149 96l35 7c0,0 19,2 19,21 0,0 -1,16 -20,18 0,0 18,-19 -5,-24l-39 -8c0,0 -8,-16 10,-14z"/>
   <path class="fil0" d="M186 117c4,2 6,8 5,13 -1,4 -4,9 -9,11 6,-1 10,-5 12,-10 1,-6 -1,-12 -5,-15l-3 1z"/>
   <path class="fil0" d="M145 99c15,2 29,4 43,7 -2,-1 -4,1 -4,3 -14,-4 -28,-6 -43,-8 0,-1 1,-2 2,-2 0,0 1,0 2,0z"/>
   <path class="fil0" d="M179 35c-3,1 -5,3 -6,5 -1,3 -1,6 -1,9 -2,-3 -2,-7 0,-11 1,-3 3,-3 7,-3z"/>
   <path class="fil0" d="M161 68c-2,-3 -2,-6 -1,-9 1,-3 4,-6 7,-6 -3,1 -5,4 -5,6 -1,3 -2,6 -1,9z"/>
   <path class="fil0" d="M149 88c-2,-2 -3,-6 -2,-9 1,-3 4,-5 7,-5 -4,3 -6,9 -5,14z"/>
   <path class="fil0" d="M136 107c-3,-3 -3,-6 -2,-9 1,-3 4,-5 8,-5 -5,2 -8,8 -6,14z"/>
   <path class="fil3" d="M123 106c-1,1 -1,2 0,3 1,0 2,0 2,0 2,0 4,1 5,2 4,3 7,6 11,8 1,1 2,2 2,3 1,2 1,3 0,5 0,2 1,4 2,5 0,-7 3,-13 8,-17 -2,0 -3,0 -4,0 -2,-1 -5,-3 -8,-4 -2,-1 -5,-3 -7,-5 -2,-3 -3,-6 -1,-9 -1,1 -2,2 -3,2 -2,0 -3,0 -4,-2 -1,3 -3,6 -3,9z"/>
   <path class="fil3" d="M149 93c-1,0 -1,0 -1,-1 -3,-3 -6,-5 -10,-5 -1,0 -2,-1 -2,-1 -1,0 -1,-1 -1,-2 1,0 2,0 2,0 3,0 6,0 8,-1 0,3 2,6 4,8 0,0 0,0 0,1 0,0 0,1 0,1z"/>
   <path class="fil3" d="M162 75c-1,0 -1,-1 -2,-1 -2,-3 -6,-5 -9,-6 -1,0 -2,0 -2,0 -1,-1 -1,-1 -1,-2 1,0 2,0 2,0 3,0 6,0 8,-1 0,3 1,5 3,8 1,0 1,0 1,1 0,0 0,0 0,1z"/>
   <path class="fil3" d="M173 56c0,0 -1,-1 -1,-1 -2,-3 -6,-5 -10,-6 0,0 -1,0 -1,0 -1,-1 -1,-1 -1,-2 0,0 1,0 2,0 3,0 5,0 8,-1 0,3 1,5 3,8 0,0 1,0 1,1 0,0 0,1 -1,1z"/>
   <polygon class="fil2" points="105,101 105,100 171,13 171,14 "/>
   <polygon class="fil2" points="108,102 107,102 173,14 174,15 "/>
   <polygon class="fil2" points="111,103 110,103 176,15 177,16 "/>
   <polygon class="fil2" points="32,81 31,80 107,7 108,8 "/>
   <polygon class="fil2" points="57,82 56,81 124,7 125,8 "/>
   <path class="fil0" d="M156 17c-3,0 -6,-1 -6,-3 0,-1 2,-3 5,-4 3,0 5,1 6,3 0,2 -2,4 -5,4z"/>
   <path class="fil1" d="M156 11c0,0 -1,0 -1,0 -1,0 -3,1 -4,1 0,1 -1,2 -1,2 1,2 2,3 4,3 1,0 1,-1 2,-1 2,0 4,-1 4,-3 0,-1 -2,-2 -4,-2zm-2 7c-2,0 -4,-2 -5,-4 0,-1 1,-2 2,-2 1,-1 2,-2 4,-2 0,0 1,0 1,0 3,0 5,1 5,3 0,2 -2,4 -5,4 -1,0 -1,1 -2,1z"/>
   <path class="fil0" d="M156 16c-3,1 -6,0 -6,-2 0,-2 2,-3 5,-4 3,0 5,1 5,3 1,1 -2,3 -4,3z"/>
   <path class="fil1" d="M156 11c0,0 -1,0 -1,0 -1,0 -3,0 -3,1 -1,1 -2,1 -1,2 0,1 1,2 3,2 1,0 1,0 2,0 1,0 2,-1 3,-1 0,-1 1,-2 1,-2 0,-2 -2,-2 -4,-2zm-2 6c-2,0 -4,-1 -4,-3 -1,-1 0,-2 1,-3 1,-1 2,-1 4,-1 0,0 0,0 1,0 3,0 5,1 5,2 0,1 -1,3 -2,3 -1,1 -2,2 -3,2 -1,0 -1,0 -2,0z"/>
   <path class="fil0" d="M155 14c-2,0 -4,-1 -4,-2 -1,-2 1,-3 4,-3 2,-1 4,0 4,2 0,1 -1,3 -4,3z"/>
   <path class="fil1" d="M155 9c0,0 0,0 0,0 -2,1 -4,2 -4,3 0,1 2,2 3,2 1,0 1,-1 1,-1 2,0 4,-1 4,-2 0,-1 -2,-2 -4,-2zm-1 6c-2,0 -4,-2 -4,-3 0,-2 2,-3 4,-4 1,0 1,0 1,0 3,0 4,1 5,3 0,1 -2,3 -5,3 0,1 0,1 -1,1z"/>
   <path class="fil0" d="M155 12c-2,1 -4,0 -4,-1 0,-2 1,-3 3,-3 3,-1 4,0 5,2 0,1 -2,2 -4,2z"/>
   <path class="fil1" d="M155 8c0,0 0,0 -1,0 0,0 -1,1 -2,1 0,0 -1,1 -1,2 1,0 2,1 3,1 0,0 1,0 1,0 1,0 2,-1 2,-1 1,0 1,-1 1,-1 0,-1 -1,-2 -3,-2zm-1 5c-2,0 -3,-1 -4,-2 0,-1 1,-2 1,-3 1,0 2,-1 3,-1 1,0 1,0 1,0 2,0 4,1 4,2 0,1 0,2 -1,3 -1,0 -2,1 -3,1 0,0 0,0 -1,0z"/>
   <path class="fil0" d="M96 95c-3,0 -6,-1 -6,-3 0,-2 2,-3 5,-4 3,0 5,1 5,3 1,1 -2,3 -4,4z"/>
   <path class="fil1" d="M96 89c-1,0 -1,0 -1,0 -3,0 -5,2 -5,3 0,1 2,2 4,2 1,0 1,0 1,0 2,0 3,-1 4,-1 1,-1 1,-2 1,-2 0,-2 -2,-2 -4,-2zm-2 6c-2,0 -4,-1 -5,-3 0,-2 2,-4 6,-4 0,0 0,0 1,0 3,0 5,1 5,3 0,1 0,2 -2,3 -1,0 -2,1 -3,1 -1,0 -1,0 -2,0z"/>
   <path class="fil0" d="M95 94c-2,0 -5,-1 -5,-2 0,-2 2,-4 5,-4 2,-1 5,0 5,2 0,2 -2,4 -5,4z"/>
   <path class="fil1" d="M96 88c-1,0 -1,0 -1,0 -2,0 -3,1 -4,2 0,0 -1,1 -1,2 1,1 2,2 4,2 1,0 1,0 1,0 2,-1 3,-1 4,-2 0,0 1,-1 1,-2 0,-1 -2,-2 -4,-2zm-2 7c-2,0 -4,-2 -5,-3 0,-1 1,-2 2,-3 1,-1 2,-2 4,-2 0,0 0,0 1,0 2,0 4,1 5,3 0,1 -1,2 -2,3 -1,1 -2,1 -3,2 -1,0 -1,0 -2,0z"/>
   <path class="fil0" d="M95 92c-2,0 -4,-1 -5,-2 0,-2 2,-3 4,-4 3,0 5,1 5,2 0,2 -2,3 -4,4z"/>
   <path class="fil1" d="M95 87c0,0 0,0 -1,0 -2,0 -3,1 -3,3 0,0 1,1 3,1 0,0 1,0 1,0 1,0 2,0 3,-1 0,0 1,-1 1,-2 -1,0 -2,-1 -4,-1zm-1 5c-2,0 -4,-1 -4,-2 0,-2 2,-4 4,-4 1,0 1,0 1,0 3,0 4,1 5,2 0,1 -1,2 -2,3 0,0 -2,1 -3,1 0,0 0,0 -1,0z"/>
   <path class="fil0" d="M95 90c-2,0 -4,0 -4,-2 0,-1 1,-2 3,-3 2,0 4,1 4,2 1,1 -1,3 -3,3z"/>
   <path class="fil1" d="M95 86c0,0 0,0 -1,0 -1,0 -3,1 -3,2 0,1 2,2 3,2 0,0 1,0 1,0 2,-1 3,-2 3,-3 0,-1 -1,-1 -3,-1zm-1 5c-2,0 -4,-1 -4,-3 0,-1 2,-3 4,-3 1,0 1,0 1,0 2,0 4,1 4,2 0,2 -2,3 -4,4 0,0 -1,0 -1,0z"/>
   <path class="fil1" d="M113 161c-1,0 -3,0 -5,0 -6,-1 -12,-5 -18,-10 -5,-3 -11,-7 -18,-9 -7,-3 -11,-1 -12,-1 -3,2 -7,2 -10,1l-5 -1c-1,-1 -2,-2 -2,-4 0,-2 2,-3 4,-2l5 1c2,1 3,1 5,0 3,-2 8,-3 17,0 7,2 14,6 20,10 5,4 11,8 15,9 5,0 10,-1 14,-3 2,-1 3,-3 3,-5 1,-4 -5,-8 -6,-10 -2,-1 -2,-3 -1,-4 1,-1 2,-2 4,-1 0,0 11,7 9,16 0,3 -2,7 -5,9 -4,3 -9,4 -14,4z"/>
   <path class="fil0" d="M113 157c-1,0 -2,0 -4,0 -5,-1 -11,-5 -17,-9 -6,-4 -12,-8 -18,-10 -3,-1 -6,-2 -9,-2 -3,0 -5,1 -6,2 -2,0 -3,1 -5,1 -1,0 -2,0 -3,-1l-5 -1c0,0 0,0 0,-1 0,0 0,0 0,0 0,0 0,0 1,0l5 1c0,0 1,1 2,1 1,0 3,-1 4,-1 2,-1 5,-2 7,-2 3,0 6,1 9,2 7,2 13,6 19,10 6,4 11,8 16,8 2,1 3,1 4,1 5,0 9,-1 12,-4 2,-1 4,-4 4,-6 1,-7 -8,-12 -8,-12 0,0 0,-1 0,-1 0,0 0,0 0,0 0,0 1,0 1,0 0,0 0,0 0,0 0,0 9,6 8,13 0,3 -2,5 -5,8 -3,2 -7,3 -12,3z"/>
   <path class="fil2" d="M101 86c0,0 0,0 -1,0 0,0 0,-1 0,-2l51 -66c0,0 1,0 2,0 0,1 0,1 0,2l-51 66c0,0 -1,0 -1,0z"/>
   <path class="fil0" d="M95 81c-6,1 -12,-1 -13,-5 -1,-4 4,-8 10,-9 6,-2 12,0 13,4 1,4 -3,8 -10,10z"/>
   <path class="fil1" d="M96 67c-1,0 -3,0 -4,0 -6,2 -10,6 -9,9 0,3 4,5 8,5 1,0 3,0 4,-1 6,-1 10,-5 10,-9 -1,-2 -4,-4 -9,-4zm-5 15c-5,0 -9,-2 -9,-6 -1,-4 3,-8 10,-10 1,0 3,0 4,0 5,0 9,2 10,5 1,4 -4,9 -11,10 -1,1 -3,1 -4,1z"/>
   <path class="fil0" d="M95 80c-6,1 -12,-1 -13,-5 -1,-3 4,-8 10,-9 6,-1 12,0 12,4 1,4 -3,8 -9,10z"/>
   <path class="fil1" d="M96 66c-1,0 -3,0 -4,0 -6,2 -10,6 -9,9 0,3 4,4 8,4 1,0 3,0 4,0 3,-1 5,-2 7,-4 2,-1 2,-3 2,-5 -1,-2 -4,-4 -8,-4zm-5 14c-5,0 -9,-2 -9,-5 -1,-4 3,-8 10,-10 1,0 2,0 4,0 5,0 8,2 9,5 0,2 0,4 -2,6 -2,2 -5,3 -8,4 -1,0 -3,0 -4,0z"/>
   <path class="fil0" d="M94 77c-6,1 -12,0 -13,-4 -1,-4 4,-9 10,-10 7,-1 12,1 13,4 1,4 -3,9 -10,10z"/>
   <path class="fil1" d="M95 63c-1,0 -2,0 -4,1 -3,0 -5,2 -7,3 -2,2 -3,4 -2,6 0,2 4,4 8,4 2,0 3,0 4,0 6,-2 11,-6 10,-9 -1,-3 -4,-5 -9,-5zm-5 15c-5,0 -8,-2 -9,-5 -1,-2 0,-4 2,-6 2,-2 5,-4 8,-4 1,-1 3,-1 4,-1 5,0 9,2 10,5 1,4 -4,9 -11,11 -1,0 -2,0 -4,0z"/>
   <path class="fil0" d="M94 74c-5,1 -10,0 -11,-3 -1,-3 3,-7 8,-8 5,-1 10,0 11,3 0,4 -3,7 -8,8z"/>
   <path class="fil1" d="M94 63c-1,0 -2,0 -3,0 -2,1 -4,2 -6,3 -1,2 -2,3 -1,5 0,2 3,3 6,3 1,0 2,0 4,0 2,-1 4,-2 6,-3 1,-2 1,-3 1,-4 0,-3 -3,-4 -7,-4zm-4 12c-4,0 -7,-2 -7,-4 -1,-2 0,-4 2,-5 1,-2 3,-3 6,-4 1,0 2,0 3,0 5,0 8,2 8,4 1,2 0,4 -2,5 -1,2 -4,3 -6,4 -1,0 -3,0 -4,0z"/>
   <path class="fil0" d="M93 71c-5,1 -9,0 -9,-3 -1,-3 2,-6 7,-7 4,-1 9,0 9,3 1,3 -2,6 -7,7z"/>
   <path class="fil1" d="M94 61c-1,0 -2,0 -3,0 -2,1 -4,2 -5,3 -2,1 -2,2 -2,4 0,2 3,3 6,3 1,0 2,0 3,-1 2,0 4,-1 5,-2 1,-1 2,-3 2,-4 -1,-2 -3,-3 -6,-3zm-4 11c-4,0 -6,-2 -7,-4 0,-2 0,-3 2,-5 1,-1 3,-2 6,-3 1,0 2,0 3,0 3,0 6,1 7,4 0,1 -1,3 -2,4 -2,2 -4,3 -6,3 -1,1 -2,1 -3,1z"/>
   <path class="fil1" d="M83 73c0,0 0,-1 0,-1 0,0 1,-1 1,-1 0,0 0,0 0,0 1,0 1,0 1,1 0,0 -1,1 -1,1 0,0 0,1 0,1 -1,0 -1,0 -1,-1 0,0 -1,0 0,0z"/>
   <path class="fil1" d="M87 73c0,0 1,0 1,0 0,-1 0,-1 0,-1 1,0 1,1 1,1 0,0 0,0 0,0 0,1 0,1 0,2 0,0 0,0 0,1 0,0 -1,0 -1,0 0,0 -1,0 -1,0 0,0 0,-1 0,-1 -1,0 0,-1 0,-1 0,0 0,-1 0,-1z"/>
   <path class="fil1" d="M93 74c0,-1 0,-1 0,-1 0,-1 0,-1 0,-1 1,0 1,0 1,0 0,1 1,1 1,1 0,1 0,1 0,1 0,0 0,1 0,1 0,0 0,0 -1,0 0,0 0,0 -1,0 0,0 0,0 0,0 0,0 0,0 0,0 0,0 0,-1 0,-1z"/>
   <path class="fil1" d="M97 72c0,-1 0,-1 0,-1 1,-1 1,-1 1,-1 1,1 1,1 1,1 0,0 1,1 1,1 0,0 0,0 0,0 0,1 0,1 0,1 -1,0 -1,1 -1,1 0,0 -1,-1 -1,-1 0,0 -1,-1 -1,-1z"/>
   <path class="fil1" d="M103 68c0,0 0,0 0,1 0,0 -1,0 -1,0 0,0 0,0 0,0 -1,0 -1,0 -1,-1 0,0 0,0 0,0 0,-1 0,-1 0,-1 0,0 0,0 1,0 0,0 0,0 1,1z"/>
   <path class="fil1" d="M64 92c0,0 0,0 0,0 -5,-1 -35,-6 -35,-6 -5,-1 -6,2 -6,2 0,0 -1,0 -1,0 0,0 0,0 0,0 0,0 1,-4 7,-3 0,0 0,0 0,0 0,0 30,5 35,6 0,0 0,0 0,1 0,0 0,0 0,0z"/>
   <path class="fil1" d="M106 116c0,0 0,0 0,0 0,0 -8,-9 -15,-14 -6,-6 -23,-9 -24,-9 0,0 0,0 0,-1 0,0 0,0 1,0 0,0 17,3 24,9 6,5 15,14 15,14 0,1 0,1 0,1 0,0 0,0 -1,0z"/>
   <path class="fil1" d="M23 116c0,0 0,0 0,0 0,-1 0,-1 0,-1 1,-1 1,-3 0,-4 0,-2 -1,-3 -3,-4 -2,-1 -3,-2 -5,-2 -2,0 -3,1 -3,2 -1,0 -1,0 -1,0 0,0 0,-1 0,-1 1,-1 2,-2 4,-2 2,0 4,1 6,2 1,1 3,3 3,5 1,1 1,3 0,4 0,1 0,1 -1,1z"/>
   <path class="fil1" d="M45 129c0,0 0,0 0,0 -1,0 -1,-1 -1,-1 1,-1 1,-2 1,-4 -1,-1 -2,-3 -4,-4 -1,-1 -3,-2 -4,-2 -2,0 -3,1 -4,2 0,0 0,0 -1,0 0,0 0,0 0,-1 1,-1 3,-2 5,-2 1,0 3,1 5,2 2,2 3,3 4,5 0,2 0,3 -1,5 0,0 0,0 0,0z"/>
   <path class="fil0" d="M25 110c1,1 1,1 1,2 1,0 1,-1 2,-2 1,-1 3,-2 5,-1 1,0 3,0 5,0 -5,-1 -10,-2 -15,-3 1,1 2,2 2,4z"/>
   <path class="fil0" d="M61 116c0,1 0,1 1,1 5,2 11,3 17,5 0,0 1,0 1,0 1,0 2,0 2,-1 -6,-2 -13,-4 -20,-5 0,0 0,0 -1,0 0,0 0,0 0,0z"/>
   <path class="fil2" d="M84 128c0,0 0,0 0,0 -10,-3 -19,-5 -28,-7 -1,0 -1,0 -2,0 -1,0 -1,1 -1,1 10,1 20,6 30,7 1,0 1,0 1,-1z"/>
   <path class="fil2" d="M117 117c-2,-1 -4,-3 -6,-2 -2,1 -3,2 -4,4 -2,2 -4,5 -6,7 2,1 5,2 7,3 0,-1 -1,-2 -1,-2 0,-1 1,-2 1,-3 1,-1 2,-3 3,-4 1,-1 2,-2 3,-3 1,0 2,-1 3,0z"/>
   <path class="fil2" d="M26 93c0,1 0,1 0,1 0,3 0,5 1,7 0,-1 0,-2 1,-3 0,-1 1,-2 2,-3 1,-1 3,-1 4,0 -2,-1 -5,-1 -7,-2 0,0 -1,0 -1,0z"/>
   <path class="fil2" d="M83 105c1,0 3,1 4,1 0,1 1,3 1,4 -2,-3 -5,-4 -9,-4 -2,-1 -4,-1 -6,0 1,-2 3,-2 5,-2 2,0 4,0 5,1z"/>
   <path class="fil2" d="M56 99c3,0 6,1 8,1 2,1 3,1 4,1 3,-1 5,-4 8,-4 -10,-2 -19,-3 -28,-5 1,2 2,4 5,6 1,0 2,0 3,1z"/>
   <path class="fil0" d="M43 147c1,1 1,3 0,4 -1,1 -3,1 -4,-1 -1,-2 -1,-4 0,-5 1,-1 3,0 4,2z"/>
   <path class="fil2" d="M43 147c1,1 1,2 0,3 -1,1 -2,0 -3,-1 -1,-1 -1,-2 0,-3 1,0 2,0 3,1z"/>
   <path class="fil3" d="M36 98c1,1 1,3 0,4 -1,1 -3,1 -4,-1 -2,-2 -2,-4 0,-5 1,-1 3,0 4,2z"/>
   <path class="fil2" d="M36 98c1,1 1,2 0,3 -1,1 -2,0 -3,-1 -1,-1 -1,-2 0,-3 1,0 2,0 3,1z"/>
   <path class="fil3" d="M83 107c1,2 1,4 0,5 -1,1 -3,0 -4,-1 -2,-2 -2,-4 0,-5 1,-1 3,0 4,1z"/>
   <path class="fil2" d="M83 108c1,1 1,2 0,3 -1,0 -2,0 -3,-1 -1,-1 -1,-2 0,-3 1,-1 2,0 3,1z"/>
   <path class="fil0" d="M114 164c1,2 1,4 0,5 -1,1 -3,0 -4,-1 -2,-2 -2,-4 -1,-5 2,-1 4,0 5,1z"/>
   <path class="fil2" d="M114 165c1,1 1,2 0,3 -1,0 -2,0 -3,-1 -1,-1 -1,-2 0,-3 1,-1 2,0 3,1z"/>
   <path class="fil0" d="M34 111c1,2 1,3 0,4 -1,0 -3,0 -3,-1 -1,-1 -1,-3 0,-3 0,-1 2,-1 3,0z"/>
   <path class="fil2" d="M34 112c0,0 0,1 0,2 -1,0 -2,0 -2,-1 -1,0 -1,-1 -1,-2 1,0 2,0 3,1z"/>
   <path class="fil0" d="M12 125c0,1 0,3 0,3 -1,1 -3,1 -4,-1 0,-1 0,-2 0,-3 1,0 3,0 4,1z"/>
   <path class="fil2" d="M11 125c1,1 1,2 0,2 0,1 -1,1 -2,0 0,-1 0,-2 0,-2 1,-1 2,0 2,0z"/>
   <path class="fil0" d="M39 113c1,1 1,2 0,3 0,1 -2,0 -3,-1 -1,-1 -1,-2 0,-3 1,-1 2,0 3,1z"/>
   <path class="fil2" d="M39 113c1,1 1,2 0,2 0,1 -1,1 -2,0 0,-1 0,-2 0,-2 1,-1 2,-1 2,0z"/>
   <path class="fil0" d="M46 152c-1,1 -1,1 -1,2 0,1 0,1 0,2 1,1 3,2 4,3 -1,-2 -1,-5 -1,-7 1,-1 1,-2 1,-3 -1,-1 -2,-2 -4,-2 2,1 2,3 1,5z"/>
   <path class="fil0" d="M196 34c-5,0 -9,0 -14,0 3,1 6,1 9,1 3,0 6,1 8,3 1,0 1,-1 1,-2 0,-1 -1,-2 -2,-2 -1,0 -1,0 -2,0z"/>
   <polygon class="fil0" points="40,79 51,80 63,68 63,64 106,19 110,18 119,8 110,9 "/>
   <path class="fil0" d="M5 116c0,-4 0,-8 1,-12 -1,0 -2,0 -2,-1 0,5 1,9 1,13z"/>
   <path class="fil2" d="M93 127c1,0 2,0 2,0 1,0 2,-1 2,-2 -3,1 -6,2 -9,2 0,1 0,1 0,1 2,0 3,0 5,-1z"/>
   <path class="fil2" d="M53 157c-1,-3 0,-7 2,-9 2,-3 5,-5 9,-5 3,0 6,1 9,3 -4,-2 -9,-2 -13,0 -4,2 -7,6 -7,11z"/>
   <path class="fil2" d="M85 183c3,1 6,0 8,-2 3,-1 4,-4 5,-7 -1,2 -3,5 -5,6 -3,2 -5,3 -8,3z"/>
   <path class="fil2" d="M72 159c0,0 1,-1 2,-1 -1,-1 -2,-2 -3,-4 0,-1 0,-3 0,-4 -2,-1 -4,-1 -5,0 -2,1 -4,2 -4,4 1,-1 3,-1 4,0 1,0 2,1 3,2 1,1 2,2 3,3z"/>
   <path class="fil2" d="M101 132c-1,0 -2,0 -3,1 -1,0 -1,2 0,3 0,1 1,2 2,2 2,0 3,0 4,0 1,0 2,0 2,-1 0,0 0,-1 0,-2 0,0 -1,-1 -1,-1 -1,-1 -3,-2 -4,-2z"/>
   <path class="fil2" d="M106 140c1,0 1,0 1,0 0,-1 0,-1 0,-1 -1,-1 -1,0 -1,0 -1,0 -1,0 -1,1 0,0 0,0 0,0 1,0 1,0 1,0z"/>
   <path class="fil2" d="M119 112c-2,-1 -4,-1 -5,-1 -1,0 -2,0 -2,1 2,0 5,0 6,2 0,-1 1,-1 1,-2 0,0 0,0 0,0z"/>
   <path class="fil2" d="M121 130c0,0 -1,0 -2,0 0,0 -1,1 -1,2 1,0 3,-1 3,-2z"/>
   <path class="fil2" d="M93 88c1,0 2,1 2,0 1,0 1,0 1,0 0,0 1,0 0,-1 -1,0 -1,0 -2,0 -1,0 -1,0 -1,0 -1,0 -1,0 -1,1 0,0 1,0 1,0z"/>
   <path class="fil2" d="M156 10c-1,-1 -2,-1 -3,0 0,0 0,0 -1,0 0,0 0,0 1,1 0,0 0,0 0,0 1,0 2,0 3,-1 0,0 0,0 0,0 0,0 0,0 0,0z"/>
   <path class="fil2" d="M220 51c0,0 -1,1 0,2 -2,-1 -4,-1 -5,-1 -11,-3 -22,-5 -33,-7 -1,0 -3,0 -3,-1 13,2 25,4 38,7 1,0 2,0 3,0z"/>
   <path class="fil2" d="M207 70c0,1 0,2 0,3 -2,-1 -3,-1 -5,-2 -11,-2 -22,-4 -33,-6 -1,0 -2,0 -3,-1 13,2 26,4 38,7 1,0 2,0 3,-1z"/>
   <path class="fil2" d="M195 90c0,1 0,2 0,3 -2,-1 -3,-1 -5,-2 -11,-2 -22,-4 -33,-6 -1,0 -2,0 -3,-1 13,2 26,4 39,6 0,0 1,1 2,0z"/>
   <path class="fil2" d="M183 110c-1,1 -1,2 -1,3 -1,-1 -3,-1 -5,-2 -10,-2 -21,-4 -32,-6 -1,0 -3,0 -3,-1 13,2 25,4 38,6 1,1 2,1 3,0z"/>
   <path class="fil2" d="M187 114c1,-3 3,-5 5,-7 -1,0 -3,1 -4,3 -1,1 -1,3 -1,4z"/>
   <path class="fil2" d="M200 94c0,-3 2,-6 4,-7 -2,0 -3,1 -4,2 0,2 -1,3 0,5z"/>
   <path class="fil2" d="M215 67c-1,0 -3,1 -3,3 -1,1 -1,3 0,4 0,-1 0,-3 1,-4 1,-1 1,-2 2,-3z"/>
   <path class="fil2" d="M227 47c-1,0 -3,1 -3,2 -1,2 -1,4 0,5 0,-2 0,-3 1,-5 1,-1 1,-2 2,-2z"/>
   <path class="fil0" d="M136 165c1,0 2,0 3,-1 -1,1 -1,2 -1,3 0,1 0,1 0,2 0,1 0,1 0,1 0,0 0,0 0,0 -1,1 -2,1 -3,0 0,0 0,0 0,0 0,0 0,0 1,-1 0,-1 0,-3 0,-4z"/>
   <path class="fil0" d="M149 152c0,0 0,1 0,2 0,-2 0,-3 0,-5 0,1 0,2 0,3z"/>
   <path class="fil2" d="M10 115c-1,-1 -2,0 -2,0 0,1 0,2 0,3 1,0 2,1 3,1 -1,-1 -2,-3 -1,-4z"/>
   <path class="fil2" d="M6 91c0,0 -1,0 -1,0 0,1 -1,1 -1,2 0,0 1,1 1,1 0,-1 0,-1 0,-1 1,-1 1,-1 1,-1 1,-1 3,-2 4,-2 -1,0 -2,0 -4,1z"/>
   <path class="fil2" d="M45 113c0,0 0,0 -1,0 0,0 0,1 0,1 0,1 0,2 1,2 0,1 1,2 2,2 0,-1 -1,-1 -1,-2 0,0 -1,-1 0,-1 0,-1 0,-2 1,-2l-2 0z"/>
   <path class="fil2" d="M29 130c-1,0 -2,0 -3,1 0,0 0,1 0,2 0,1 1,1 1,2 1,0 2,0 2,1 0,-1 -1,-2 -1,-3 0,-1 0,-2 1,-3z"/>
   <path class="fil2" d="M95 69c1,-1 3,-2 3,-4 -1,2 -3,3 -6,4 -2,0 -5,0 -7,-1 3,2 7,2 10,1z"/>
  </g>
  <g id="_2996359895280">
   <circle class="fil4 str0" cx="121" cy="39" r="13"/>
   <circle class="fil5 str1" cx="121" cy="39" r="13"/>
   <path class="fil6 str2" d="M144 19c8,12 8,20 1,34"/>
   <path class="fil6 str2" d="M154 5c21,25 7,50 5,55"/>
   <path class="fil6 str2" d="M94 31c-4,13 -2,20 8,28"/>
   <path class="fil6 str2" d="M80 23c-9,27 6,43 17,48"/>
  </g>
  <path class="fil6 str3" d="M121 39c-3,11 -6,23 -14,32 -7,10 -18,16 -30,26 -12,10 -24,22 -30,32 -6,10 -7,18 -8,26"/>
  <path class="fil6 str3" d="M121 39c4,9 7,17 7,26 0,8 -3,16 -2,24 0,8 5,17 3,26 -1,8 -9,16 -8,25 1,9 11,18 21,28"/>
  <path class="fil6 str3" d="M121 39c8,10 16,19 24,25 7,6 14,9 19,8 4,-1 6,-5 8,-12 1,-8 2,-18 4,-25 1,-7 4,-11 6,-16"/>
  <path class="fil6 str4" d="M182 19c0,-1 1,-2 2,-3 1,-1 2,-3 6,-6 4,-3 10,-6 16,-9"/>
  <path class="fil6 str4" d="M142 168c2,1 4,2 5,3 2,2 2,3 2,5 0,3 -1,7 -1,10 0,3 2,6 4,8"/>
  <path class="fil6 str4" d="M39 155c0,3 -1,5 -2,8 -2,2 -4,5 -6,7 -3,2 -6,4 -8,6"/>
 </g>
</svg>
