<?xml version="1.0" encoding="UTF-8"?>
<!DOCTYPE svg PUBLIC "-//W3C//DTD SVG 1.1//EN" "http://www.w3.org/Graphics/SVG/1.1/DTD/svg11.dtd">
<!-- Creator: CorelDRAW X7 -->
<svg xmlns="http://www.w3.org/2000/svg" xml:space="preserve" width="45.7681mm" height="17.6672mm" version="1.1" style="shape-rendering:geometricPrecision; text-rendering:geometricPrecision; image-rendering:optimizeQuality; fill-rule:evenodd; clip-rule:evenodd"
viewBox="0 0 1240 479"
 xmlns:xlink="http://www.w3.org/1999/xlink">
 <defs>
  <style type="text/css">
   <![CDATA[
    .str0 {stroke:#373435;stroke-width:4.77794}
    .str4 {stroke:#F06277;stroke-width:4.77794}
    .str1 {stroke:#ED3237;stroke-width:4.77794}
    .str3 {stroke:#373435;stroke-width:4.77794;stroke-dasharray:23.889692 4.777938}
    .str2 {stroke:#373435;stroke-width:4.77794;stroke-dasharray:23.889692 14.333815}
    .fil5 {fill:none}
    .fil3 {fill:#373435}
    .fil6 {fill:#F06277}
    .fil2 {fill:#373435;fill-rule:nonzero}
    .fil7 {fill:#373435;fill-rule:nonzero}
    .fil4 {fill:#ED3237;fill-rule:nonzero}
    .fil0 {fill:url(#id0)}
    .fil1 {fill:url(#id1)}
   ]]>
  </style>
  <linearGradient id="id0" gradientUnits="userSpaceOnUse" x1="241.782" y1="365.044" x2="424.094" y2="116.499">
   <stop offset="0" style="stop-opacity:1; stop-color:#91D8F7"/>
   <stop offset="1" style="stop-opacity:1; stop-color:#FEFEFE"/>
  </linearGradient>
  <linearGradient id="id1" gradientUnits="userSpaceOnUse" x1="772.612" y1="392.991" x2="1105.78" y2="70.7455">
   <stop offset="0" style="stop-opacity:1; stop-color:#0098DA"/>
   <stop offset="1" style="stop-opacity:1; stop-color:#FEFEFE"/>
  </linearGradient>
 </defs>
 <g id="Layer_x0020_1">
  <metadata id="CorelCorpID_0Corel-Layer"/>
  <path class="fil0 str0" d="M429 468c-52,0 -185,14 -271,5 -85,-9 -154,-39 -149,-158 7,-175 -24,-231 10,-266 34,-34 299,-19 329,-17 30,1 197,-27 249,-27 130,0 25,163 48,279 5,24 11,74 5,114 -5,33 -19,58 -50,57 -66,-4 -118,13 -171,13z"/>
  <path class="fil1 str0" d="M663 65c-2,-80 154,-62 189,-58 36,4 317,8 342,8 25,-1 42,4 42,34 0,29 -21,95 -8,207 10,83 36,190 -97,184 -28,-1 -53,-1 -81,-2 -168,-9 -249,23 -311,23 -61,0 -96,-20 -89,-63 6,-40 0,-90 -5,-114 -15,-72 20,-162 18,-219z"/>
  <path class="fil2" d="M143 149l0 -4 -2 0c-7,0 -9,-1 -10,-5l-25 -72c-1,-1 -1,-2 -3,-2 -2,0 -2,1 -3,2l-24 69c-2,6 -6,8 -13,8l0 4 12 -1 14 1 0 -4c-6,0 -9,-3 -9,-6 0,0 0,-1 0,-2l5 -15 29 0 6 18c0,0 0,1 0,2 0,3 -6,3 -9,3l0 4c4,-1 12,-1 16,-1l16 1zm-30 -30l-26 0 13 -38 13 38z"/>
  <path class="fil2" d="M1159 380c0,-10 -10,-18 -23,-20 12,-2 20,-9 20,-18 0,-10 -11,-20 -26,-20l-42 0 0 4 2 0c9,0 10,1 10,5l0 61c0,5 -1,6 -10,6l-2 0 0 3 45 0c15,0 26,-10 26,-21l0 0zm-15 -38c0,7 -5,17 -18,17l-17 0 0 -28c0,-4 0,-5 6,-5l14 0c11,0 15,10 15,16l0 0zm3 38c0,8 -6,18 -18,18l-14 0c-6,0 -6,-1 -6,-5l0 -31 22 0c11,0 16,10 16,18l0 0z"/>
  <circle class="fil3 str0" cx="182" cy="305" r="15"/>
  <circle class="fil3 str0" cx="182" cy="305" r="15"/>
  <circle class="fil3 str0" cx="641" cy="233" r="15"/>
  <circle class="fil3 str0" cx="739" cy="339" r="15"/>
  <circle class="fil3 str0" cx="737" cy="130" r="15"/>
  <path class="fil2" d="M166 400c0,-2 -2,-2 -3,-2 -3,0 -3,0 -4,3 -1,4 -3,13 -7,13 -1,0 -2,-1 -2,-4 0,-2 0,-3 0,-5l8 -32c1,-2 1,-2 1,-2 0,-4 -3,-5 -5,-5 -2,0 -6,0 -8,6l-8 33c0,2 0,2 -3,5 -2,2 -5,4 -8,4 -6,0 -6,-6 -6,-8 0,-7 3,-18 6,-25 1,-3 2,-4 2,-6 0,-7 -6,-10 -12,-10 -12,0 -18,15 -18,18 0,1 2,1 3,1 2,0 3,0 4,-1 0,-3 4,-14 10,-14 1,0 2,0 2,2 0,2 -2,6 -2,8 -4,9 -7,18 -7,24 0,11 7,15 17,15 3,0 8,-1 14,-6 2,4 7,6 12,6 5,0 8,-4 9,-6 3,-5 5,-12 5,-12z"/>
  <path id="1" class="fil2" d="M186 440l0 -2 -2 0c-5,0 -5,0 -5,-3l0 -32c0,-1 0,-1 -1,-1 -4,3 -9,3 -11,3l0 2c1,0 5,0 8,-1l0 29c0,3 -1,3 -6,3l-2 0 0 2c2,0 7,0 10,0 2,0 7,0 9,0z"/>
  <path class="fil4" d="M135 175c0,-5 -6,-9 -13,-9 -15,0 -18,13 -19,19l-2 11 -11 0c-2,0 -4,0 -4,3 0,2 2,2 4,2l10 0 -8 44c-1,6 -2,8 -3,13 0,2 -2,8 -6,8 0,0 -2,0 -3,-1 4,-2 4,-5 4,-7 0,-3 -2,-5 -5,-5 -5,0 -9,3 -9,8 0,6 6,10 13,10 4,0 14,-3 19,-20 2,-5 2,-7 3,-12l7 -38 13 0c2,0 4,0 4,-3 0,-2 -2,-2 -4,-2l-12 0c1,-6 4,-21 5,-23 0,-1 2,-3 4,-3 0,0 2,0 3,1 -2,1 -4,4 -4,7 0,4 2,6 6,6 4,0 8,-4 8,-9z"/>
  <path id="1" class="fil4" d="M143 270l0 -2 -2 0c-5,0 -5,0 -5,-2l0 -33c0,-1 0,-1 -1,-1 -4,3 -9,3 -11,3l0 2c1,0 5,0 8,-1l0 30c0,2 -1,2 -6,2l-2 0 0 2c2,0 7,0 10,0 2,0 7,0 9,0z"/>
  <path class="fil2" d="M796 81c0,-2 -2,-2 -3,-2 -3,0 -3,1 -4,3 -1,4 -3,13 -7,13 -1,0 -2,-1 -2,-4 0,-2 0,-3 1,-5l8 -32c0,-1 0,-2 0,-2 0,-4 -3,-5 -5,-5 -2,0 -6,1 -8,6l-8 33c0,2 0,2 -3,6 -2,1 -5,3 -8,3 -6,0 -6,-6 -6,-8 0,-7 4,-17 6,-25 1,-2 2,-4 2,-6 0,-6 -6,-10 -12,-10 -12,0 -18,16 -18,18 0,2 2,2 3,2 3,0 3,0 4,-2 1,-3 4,-14 10,-14 1,0 2,0 2,2 0,3 -1,6 -2,8 -4,10 -7,18 -7,25 0,10 7,14 17,14 3,0 8,0 14,-6 2,4 7,6 12,6 5,0 8,-4 9,-6 3,-5 5,-11 5,-12z"/>
  <path id="1" class="fil2" d="M819 112l0 -2 -5 0 0 -26c0,-1 0,-2 -1,-2 -1,0 -1,0 -2,1l-17 27 0 2 15 0 0 5c0,2 0,2 -4,2l-2 0 0 2c3,0 6,0 8,0 3,0 6,0 8,0l0 -2 -1 0c-4,0 -4,0 -4,-2l0 -5 5 0zm-10 -2l-14 0 14 -22 0 22z"/>
  <path id="2" class="fil2" d="M926 61c0,-11 0,-39 -28,-39 -27,0 -28,28 -28,39 0,12 1,38 28,38 28,0 28,-26 28,-38zm-14 -1c0,6 0,17 -1,23 -2,11 -9,12 -13,12 -4,0 -10,-2 -12,-11 -1,-6 -1,-18 -1,-24 0,-8 0,-16 1,-22 2,-10 10,-11 12,-11 5,0 9,2 12,7 2,4 2,16 2,26z"/>
  <path class="fil2" d="M798 402c0,-1 -2,-1 -3,-1 -3,0 -3,0 -4,3 -1,3 -3,12 -7,12 -1,0 -2,-1 -2,-3 0,-3 0,-4 1,-5l8 -32c0,-2 0,-2 0,-3 0,-4 -3,-5 -5,-5 -2,0 -6,1 -8,7l-8 32c0,2 0,3 -3,6 -2,1 -5,3 -8,3 -6,0 -6,-5 -6,-8 0,-7 4,-17 6,-24 1,-3 2,-5 2,-7 0,-6 -6,-10 -12,-10 -12,0 -18,16 -18,18 0,2 2,2 3,2 3,0 3,0 4,-2 1,-3 4,-14 10,-14 1,0 2,0 2,2 0,3 -2,6 -2,8 -4,10 -7,18 -7,25 0,10 7,14 17,14 3,0 8,0 14,-6 2,4 7,6 12,6 5,0 8,-4 9,-6 3,-5 5,-11 5,-12z"/>
  <path id="1" class="fil2" d="M821 433l0 -2 -6 0 0 -26c0,-1 0,-2 0,-2 -1,0 -1,0 -2,1l-17 27 0 2 15 0 0 5c0,2 0,3 -4,3l-2 0 0 2c3,-1 6,-1 8,-1 3,0 6,0 8,1l0 -2 -1 0c-4,0 -5,-1 -5,-3l0 -5 6 0zm-10 -2l-14 0 14 -21 0 21z"/>
  <path id="2" class="fil2" d="M923 383c0,-12 -1,-39 -28,-39 -28,0 -28,27 -28,39 0,11 0,38 28,38 27,0 28,-27 28,-38zm-15 -2c0,7 0,17 -1,23 -2,11 -9,13 -12,13 -5,0 -11,-3 -13,-11 -1,-6 -1,-19 -1,-25 0,-8 0,-16 1,-22 2,-10 10,-11 13,-11 4,0 9,2 11,7 2,4 2,17 2,26z"/>
  <path class="fil2" d="M586 179c0,-1 -1,-1 -3,-1 -3,0 -3,0 -4,3 -1,3 -3,12 -7,12 -1,0 -2,-1 -2,-3 0,-3 0,-4 1,-5l8 -32c0,-2 0,-2 0,-3 0,-4 -3,-5 -5,-5 -2,0 -6,1 -7,6l-8 33c-1,2 -1,3 -4,6 -2,1 -5,3 -8,3 -6,0 -6,-5 -6,-8 0,-7 4,-17 7,-24 1,-3 1,-5 1,-7 0,-6 -6,-10 -12,-10 -12,0 -18,16 -18,18 0,2 2,2 4,2 2,0 2,0 3,-2 1,-3 4,-14 10,-14 1,0 2,0 2,2 0,3 -1,6 -2,8 -4,10 -7,18 -7,25 0,10 8,14 17,14 3,0 8,0 14,-6 2,4 7,6 12,6 5,0 8,-4 10,-6 3,-5 4,-11 4,-12z"/>
  <path id="1" class="fil2" d="M608 209l-1 0c-1,2 -1,5 -2,6 0,0 -4,0 -5,0l-10 0 6 -6c9,-8 12,-11 12,-17 0,-6 -5,-11 -12,-11 -7,0 -11,5 -11,10 0,4 3,4 3,4 1,0 3,-1 3,-3 0,-2 -1,-3 -3,-3 0,0 0,0 -1,0 2,-4 5,-6 8,-6 5,0 8,4 8,9 0,5 -3,9 -6,13l-11 12c-1,1 -1,1 -1,2l22 0 1 -10z"/>
  <path class="fil3 str0" d="M579 237c9,6 19,37 19,37 1,-3 25,-31 31,-37 -15,1 -33,-1 -50,0l0 0z"/>
  <path class="fil5 str1" d="M209 281c10,14 10,24 2,40"/>
  <path class="fil5 str1" d="M222 264c24,30 7,60 5,66"/>
  <path class="fil5 str1" d="M150 295c-4,15 -2,24 9,33"/>
  <path class="fil5 str1" d="M134 286c-12,32 7,51 19,57"/>
  <path class="fil5 str2" d="M182 305c42,96 252,52 323,4 14,-9 126,-80 136,-76l1 -4"/>
  <path class="fil5 str3" d="M737 130c-9,8 -27,-16 -68,49 -8,11 -16,44 -27,50"/>
  <path class="fil5 str3" d="M739 339c2,5 -1,-11 -15,-25 -36,-36 -85,-22 -83,-77 0,-3 -2,-1 0,-4"/>
  <path class="fil3 str0" d="M686 191c-10,0 -37,-19 -37,-19 1,3 -1,41 -2,49 12,-10 27,-19 39,-30l0 0z"/>
  <path class="fil3 str0" d="M640 287c6,-8 38,-16 38,-16 -3,-1 -30,-28 -36,-34 0,16 -3,33 -3,50l1 0z"/>
  <polygon class="fil4" points="804,203 804,197 773,197 773,203 "/>
  <path id="1" class="fil4" d="M873 153c0,-6 -6,-9 -14,-9 -14,0 -17,12 -18,18l-2 12 -11 0c-2,0 -4,0 -4,3 0,2 2,2 4,2l10 0 -8 44c-2,6 -2,8 -3,13 -1,2 -2,8 -6,8 0,0 -2,0 -4,-1 4,-2 5,-5 5,-7 0,-3 -2,-5 -6,-5 -4,0 -8,3 -8,8 0,6 6,9 13,9 4,0 14,-2 19,-19 2,-5 2,-7 3,-12l7 -38 13 0c2,0 4,0 4,-3 0,-2 -2,-2 -4,-2l-12 0c1,-6 4,-22 5,-23 0,-2 2,-3 3,-3 1,0 3,0 4,1 -2,1 -4,4 -4,7 0,3 2,6 5,6 4,0 9,-4 9,-9z"/>
  <path id="2" class="fil4" d="M883 238l-2 0c0,2 -1,4 -1,5 -1,1 -4,1 -6,1l-10 0 6 -6c9,-8 13,-11 13,-17 0,-7 -6,-11 -13,-11 -6,0 -11,5 -11,10 0,3 3,3 4,3 0,0 3,0 3,-3 0,-1 -2,-3 -4,-3 0,0 0,0 0,0 1,-3 4,-6 8,-6 5,0 7,5 7,10 0,4 -3,9 -6,13l-11 12c-1,1 -1,1 -1,2l22 0 2 -10z"/>
  <path id="3" class="fil4" d="M909 160c0,0 0,0 0,0 -1,0 -1,0 -1,0 -2,6 -7,6 -8,6 -3,0 -5,-1 -6,-4 -2,-2 -2,-6 -2,-8l16 0c1,0 1,0 1,-1 0,-6 -3,-12 -10,-12 -7,0 -12,6 -12,13 0,8 6,14 13,14 7,0 9,-7 9,-8zm-3 -7l-14 0c0,-9 5,-10 7,-10 6,0 7,7 7,10z"/>
  <path id="4" class="fil4" d="M942 178l0 -1c-4,0 -5,0 -5,-3l0 -32 -1 0 -2 5c-1,-2 -4,-5 -8,-5 -7,0 -13,5 -13,13 0,7 6,13 12,13 4,0 7,-3 8,-4l0 10c0,3 -1,3 -4,3l0 1 6 0 7 0zm-9 -19c0,2 -1,4 -2,5 -1,1 -3,3 -5,3 -5,0 -8,-6 -8,-12 0,-7 4,-12 8,-12 5,0 7,5 7,8l0 8z"/>
  <path class="fil6 str4" d="M687 252c-5,-9 -2,-41 -2,-41 -2,2 -36,19 -44,22 15,5 31,14 46,20l0 -1z"/>
  <path class="fil5 str4" d="M641 233c9,-5 137,-5 153,0"/>
 </g>
 <g id="Layer_x0020_1_0">
  <metadata id="CorelCorpID_1Corel-Layer"/>
  <path class="fil7" d="M850 65c0,-1 -1,-1 -2,-1l-40 0c-1,0 -2,0 -2,1 0,2 1,2 2,2l40 0c1,0 2,0 2,-2zm0 13c0,-1 -1,-1 -2,-1l-40 0c-1,0 -2,0 -2,1 0,2 1,2 2,2l40 0c1,0 2,0 2,-2z"/>
  <path class="fil7" d="M853 377c0,-1 -2,-1 -3,-1l-40 0c-1,0 -2,0 -2,1 0,1 1,1 2,1l40 0c1,0 3,0 3,-1zm0 13c0,-2 -2,-2 -3,-2l-40 0c-1,0 -2,0 -2,2 0,1 1,1 2,1l40 0c1,0 3,0 3,-1z"/>
 </g>
</svg>
